<?xml version="1.0" encoding="utf-8"?>
<!-- Generator: Adobe Illustrator 23.0.1, SVG Export Plug-In . SVG Version: 6.00 Build 0)  -->
<svg version="1.1" id="Capa_3" xmlns="http://www.w3.org/2000/svg" xmlns:xlink="http://www.w3.org/1999/xlink" x="0px" y="0px"
	 viewBox="0 0 1366 768" style="enable-background:new 0 0 1366 768;" xml:space="preserve">
<style type="text/css">
	.st0{fill:#FF6666;}
	.st1{fill:#FFFFFF;}
</style>
<g>
	<polygon class="st0" points="239.45,264.15 490.37,264.15 497.3,235.73 239.45,235.73 	"/>
	<g>
		<path class="st1" d="M255.27,249.89v-0.04c0-3.92,3-7.24,7.22-7.24c2.44,0,3.94,0.68,5.38,1.9l-1.56,1.86
			c-1.08-0.92-2.14-1.5-3.92-1.5c-2.58,0-4.54,2.26-4.54,4.94v0.04c0,2.88,1.9,5,4.76,5c1.32,0,2.52-0.42,3.38-1.06v-2.62h-3.58
			v-2.14h5.96v5.88c-1.38,1.18-3.36,2.18-5.84,2.18C258.15,257.09,255.27,253.97,255.27,249.89z"/>
		<path class="st1" d="M271.57,242.85h6.24c1.76,0,3.14,0.52,4.04,1.4c0.74,0.76,1.16,1.8,1.16,3.02v0.04c0,2.3-1.38,3.68-3.34,4.24
			l3.78,5.3h-2.9l-3.44-4.88h-3.08v4.88h-2.46V242.85z M277.63,249.79c1.76,0,2.88-0.92,2.88-2.34v-0.04c0-1.5-1.08-2.32-2.9-2.32
			h-3.58v4.7H277.63z"/>
		<path class="st1" d="M290.99,242.75h2.28l6.16,14.1h-2.6l-1.42-3.38h-6.62l-1.44,3.38h-2.52L290.99,242.75z M294.51,251.29
			l-2.42-5.6l-2.4,5.6H294.51z"/>
		<path class="st1" d="M301.97,242.85h2.46v14h-2.46V242.85z"/>
		<path class="st1" d="M308.17,242.85h2.28l7.5,9.68v-9.68h2.42v14h-2.06l-7.72-9.96v9.96h-2.42V242.85z"/>
		<path class="st1" d="M329.97,242.85h10.38v2.2h-7.92v3.64h7.02v2.2h-7.02v3.76h8.02v2.2h-10.48V242.85z"/>
		<path class="st1" d="M343.37,242.85h2.46v11.76h7.36v2.24h-9.82V242.85z"/>
		<path class="st1" d="M355.75,242.85h10.38v2.2h-7.92v3.64h7.02v2.2h-7.02v3.76h8.02v2.2h-10.48V242.85z"/>
		<path class="st1" d="M367.95,242.85h2.72l4.22,10.76l4.2-10.76h2.66l-5.82,14.1h-2.16L367.95,242.85z"/>
		<path class="st1" d="M387.11,242.75h2.28l6.16,14.1h-2.6l-1.42-3.38h-6.62l-1.44,3.38h-2.52L387.11,242.75z M390.63,251.29
			l-2.42-5.6l-2.4,5.6H390.63z"/>
		<path class="st1" d="M399.59,245.13h-4.44v-2.28h11.36v2.28h-4.44v11.72h-2.48V245.13z"/>
		<path class="st1" d="M407.73,249.89v-0.04c0-3.94,3.04-7.24,7.34-7.24s7.3,3.26,7.3,7.2v0.04c0,3.94-3.04,7.24-7.34,7.24
			S407.73,253.83,407.73,249.89z M419.79,249.89v-0.04c0-2.72-1.98-4.98-4.76-4.98s-4.72,2.22-4.72,4.94v0.04
			c0,2.72,1.98,4.98,4.76,4.98S419.79,252.61,419.79,249.89z"/>
		<path class="st1" d="M425.35,242.85h6.24c1.76,0,3.14,0.52,4.04,1.4c0.74,0.76,1.16,1.8,1.16,3.02v0.04c0,2.3-1.38,3.68-3.34,4.24
			l3.78,5.3h-2.9l-3.44-4.88h-3.08v4.88h-2.46V242.85z M431.41,249.79c1.76,0,2.88-0.92,2.88-2.34v-0.04c0-1.5-1.08-2.32-2.9-2.32
			h-3.58v4.7H431.41z"/>
	</g>
	<g>
		<g>
			<path class="st1" d="M489.59,242.72c1.25-0.33,1.99-1.62,1.65-2.86c-0.33-1.25-1.62-1.99-2.86-1.65
				c-0.93,0.25-1.58,1.02-1.71,1.92l-10.95,3.35c0-0.7,0-1.4,0-2.1c-2.65-1.1-5.64-1.1-8.29,0c0,2.76,0,5.53,0,8.29
				c0.64,0,1.29,0,1.93,0l-1.93,12.09h3.76v0h0.78v0h3.76l-1.93-12.09c0.64,0,1.29,0,1.93,0c0-0.03,11.91-7.31,11.91-7.31
				c0.29,0.21,0.62,0.35,0.97,0.41v8.76c-0.57,0.2-0.9,0.81-0.74,1.4c0.17,0.62,0.81,0.99,1.43,0.83c0.62-0.17,0.99-0.81,0.83-1.43
				c-0.1-0.39-0.39-0.67-0.74-0.8v-8.76C489.44,242.75,489.51,242.74,489.59,242.72z M470.07,250.1h1.11v5.05h-1.91L470.07,250.1z
				 M468.34,260.98l0.81-5.05h2.04v5.05H468.34z M471.96,260.98v-5.05H474l0.81,5.05H471.96z M473.87,255.15h-1.91v-5.05h1.11
				L473.87,255.15z M480.92,242.69l-1.14,2.89l-3.14-1.58L480.92,242.69z M474.85,245.35h-6.56v-2.58h6.56V245.35z M475.72,248.66
				c0-1.42,0-2.84,0-4.26l3.83,1.93L475.72,248.66z M480.56,245.72l1.19-3.02l2.91,0.54L480.56,245.72z M485.67,242.63l-2.84-0.52
				l3.87-1.19c0.01,0.05,0.01,0.1,0.02,0.15c0.07,0.26,0.19,0.5,0.34,0.71L485.67,242.63z"/>
		</g>
	</g>
</g>
<g>
	<polygon class="st0" points="116.02,556.63 366.93,556.63 373.87,528.21 116.02,528.21 	"/>
	<g>
		<g>
			<path class="st1" d="M366.15,535.2c1.25-0.33,1.99-1.62,1.65-2.86c-0.33-1.25-1.62-1.99-2.86-1.65
				c-0.93,0.25-1.58,1.02-1.71,1.92l-10.95,3.35c0-0.7,0-1.4,0-2.1c-2.65-1.1-5.64-1.1-8.29,0c0,2.76,0,5.53,0,8.29
				c0.64,0,1.29,0,1.93,0l-1.93,12.09h3.76v0h0.78v0h3.76l-1.93-12.09c0.64,0,1.29,0,1.93,0c0-0.03,11.91-7.31,11.91-7.31
				c0.29,0.21,0.62,0.35,0.97,0.41V544c-0.57,0.2-0.9,0.81-0.74,1.4c0.17,0.62,0.81,0.99,1.43,0.83c0.62-0.17,0.99-0.81,0.83-1.43
				c-0.1-0.39-0.39-0.67-0.74-0.8v-8.76C366.01,535.22,366.08,535.22,366.15,535.2z M346.64,542.58h1.11v5.05h-1.91L346.64,542.58z
				 M344.9,553.46l0.81-5.05h2.04v5.05H344.9z M348.53,553.46v-5.05h2.04l0.81,5.05H348.53z M350.44,547.63h-1.91v-5.05h1.11
				L350.44,547.63z M357.49,535.17l-1.14,2.89l-3.14-1.58L357.49,535.17z M351.42,537.82h-6.56v-2.58h6.56V537.82z M352.28,541.14
				c0-1.42,0-2.84,0-4.26l3.83,1.93L352.28,541.14z M357.13,538.2l1.19-3.02l2.91,0.54L357.13,538.2z M362.23,535.1l-2.84-0.52
				l3.87-1.19c0.01,0.05,0.01,0.1,0.02,0.15c0.07,0.26,0.19,0.5,0.34,0.71L362.23,535.1z"/>
		</g>
	</g>
	<g>
		<path class="st1" d="M123.39,542.68v-0.04c0-3.92,3-7.24,7.22-7.24c2.44,0,3.94,0.68,5.38,1.9l-1.56,1.86
			c-1.08-0.92-2.14-1.5-3.92-1.5c-2.58,0-4.54,2.26-4.54,4.94v0.04c0,2.88,1.9,5,4.76,5c1.32,0,2.52-0.42,3.38-1.06v-2.62h-3.58
			v-2.14h5.96v5.88c-1.38,1.18-3.36,2.18-5.84,2.18C126.27,549.88,123.39,546.76,123.39,542.68z"/>
		<path class="st1" d="M139.69,535.64h10.38v2.2h-7.92v3.64h7.02v2.2h-7.02v3.76h8.02v2.2h-10.48V535.64z"/>
		<path class="st1" d="M153.09,535.64h2.28l7.5,9.68v-9.68h2.42v14h-2.06l-7.72-9.96v9.96h-2.42V535.64z"/>
		<path class="st1" d="M168.89,535.64h10.38v2.2h-7.92v3.64h7.02v2.2h-7.02v3.76h8.02v2.2h-10.48V535.64z"/>
		<path class="st1" d="M182.29,535.64h6.24c1.76,0,3.14,0.52,4.04,1.4c0.74,0.76,1.16,1.8,1.16,3.02v0.04c0,2.3-1.38,3.68-3.34,4.24
			l3.78,5.3h-2.9l-3.44-4.88h-3.08v4.88h-2.46V535.64z M188.35,542.58c1.76,0,2.88-0.92,2.88-2.34v-0.04c0-1.5-1.08-2.32-2.9-2.32
			h-3.58v4.7H188.35z"/>
		<path class="st1" d="M201.71,535.54h2.28l6.16,14.1h-2.6l-1.42-3.38h-6.62l-1.44,3.38h-2.52L201.71,535.54z M205.23,544.08
			l-2.42-5.6l-2.4,5.6H205.23z"/>
		<path class="st1" d="M212.54,535.64h2.46v11.76h7.36v2.24h-9.82V535.64z"/>
		<path class="st1" d="M230.3,542.68v-0.04c0-3.98,2.98-7.24,7.22-7.24c2.58,0,4.14,0.9,5.48,2.18l-1.58,1.82
			c-1.12-1.04-2.32-1.74-3.92-1.74c-2.68,0-4.62,2.2-4.62,4.94v0.04c0,2.74,1.94,4.98,4.62,4.98c1.72,0,2.82-0.7,4.02-1.82l1.58,1.6
			c-1.46,1.52-3.06,2.48-5.68,2.48C233.35,549.88,230.3,546.7,230.3,542.68z"/>
		<path class="st1" d="M250.65,535.54h2.28l6.16,14.1h-2.6l-1.42-3.38h-6.62l-1.44,3.38h-2.52L250.65,535.54z M254.17,544.08
			l-2.42-5.6l-2.4,5.6H254.17z"/>
		<path class="st1" d="M261.48,535.64h6.24c1.76,0,3.14,0.52,4.04,1.4c0.74,0.76,1.16,1.8,1.16,3.02v0.04c0,2.3-1.38,3.68-3.34,4.24
			l3.78,5.3h-2.9l-3.44-4.88h-3.08v4.88h-2.46V535.64z M267.55,542.58c1.76,0,2.88-0.92,2.88-2.34v-0.04c0-1.5-1.08-2.32-2.9-2.32
			h-3.58v4.7H267.55z"/>
		<path class="st1" d="M275.32,542.68v-0.04c0-3.92,3-7.24,7.22-7.24c2.44,0,3.94,0.68,5.38,1.9l-1.56,1.86
			c-1.08-0.92-2.14-1.5-3.92-1.5c-2.58,0-4.54,2.26-4.54,4.94v0.04c0,2.88,1.9,5,4.76,5c1.32,0,2.52-0.42,3.38-1.06v-2.62h-3.58
			v-2.14h5.96v5.88c-1.38,1.18-3.36,2.18-5.84,2.18C278.21,549.88,275.32,546.76,275.32,542.68z"/>
		<path class="st1" d="M291,542.68v-0.04c0-3.94,3.04-7.24,7.34-7.24c4.3,0,7.3,3.26,7.3,7.2v0.04c0,3.94-3.04,7.24-7.34,7.24
			C294,549.88,291,546.62,291,542.68z M303.07,542.68v-0.04c0-2.72-1.98-4.98-4.76-4.98c-2.78,0-4.72,2.22-4.72,4.94v0.04
			c0,2.72,1.98,4.98,4.76,4.98C301.13,547.62,303.07,545.4,303.07,542.68z"/>
	</g>
</g>
</svg>
