<?xml version="1.0" encoding="utf-8"?>
                    <!DOCTYPE svg PUBLIC "-//W3C//DTD SVG 1.1 Tiny//EN" "http://www.w3.org/Graphics/SVG/1.1/DTD/svg11-tiny.dtd">
                    <svg version="1.1" baseProfile="tiny" id="map_base" xmlns="http://www.w3.org/2000/svg" xmlns:xlink="http://www.w3.org/1999/xlink" x="0px" y="0px" viewBox="0 0 1366 1321.7" xml:space="preserve">
                        <defs>
                                <linearGradient id="Gradient1" x1="0" x2="45%" y1="0" y2="45%">
                                  <stop class="stop1" offset="0%"/>
                                  <stop class="stop2" offset="100%"/>
                                </linearGradient>
                               
                            </defs>
                        <path fill="#00A784" d="M1064.9,668.2c-74,8.6-68-84.7-27.9-125.7c3.1-3.2,3.6-8.2,1.1-12c-26.6-41.1-129-94.8-148.5-132.8
                            c-0.2-0.4-3-7.4-2.5-11.7c0.3-3-1.3-5.8-4-7.1c-21.7-10.3-67.8-33.3-74.9-46.1c-3.2-5.8-8.8-21-15.3-38.7
                            c-10.1-27.6-25.3-69.2-32.9-75c-4.7-3.7-12.8-1.8-22.1,0.3c-12.3,2.8-26.3,6-38.6-2.2l-0.3-0.2l-0.2-0.3
                            c-23.1-25.1-57.1-84.4-54.9-111.8c4.3-53.6,32-80.5,48.3-91.8c7-6.4,5.7-13.1,5.7-13.1H0v1321.7h148.4l-0.6-68.7
                            c-0.1-6.9,7-11.7,13.4-9l130.1,54.2c0.4,0.2,0.8,0.3,1.3,0.4c8.7,2.3,99.6,23.2,162.4-72.3c5.4-8.2-21.5-14.6-27.5-25.8
                            c-6-11.2-4.3-71.2,3.4-75.5c7.7-4.3,12.9,6,24,0c11.2-6,22.3-51.5,18-67.8s-34.3-13.7-41.2-25.8c-6.9-12-1.4-70.5,2.6-71.2
                            c12.7-2.1,66.3,33.4,92.7,48.1c17,9.4,236.9-20.6,309.9-47.2c21.4-7.8,108.2-36.1,127-51.5c4.8-3.9-5.2-22.3-0.9-30
                            s100.4-95.3,111.6-128.8c9.2-27.6,3.3-56.3,0.9-74.2C1074.8,671.3,1070.1,667.6,1064.9,668.2z"/>
                        <path fill="#00A784" d="M696,17.6l-0.3,0.2c-15.3,10.7-41.7,36.2-45.9,87.5c-1.9,23.3,28.2,79.8,53,107c10.1,6.5,22.1,3.8,33.7,1.2
                            c10.4-2.3,20.1-4.6,27.1,0.8c6.8,5.2,16,27.2,27.3,57.2c1.2,3.3,4,5.7,7.4,6.6l88.7,22.2c4.4,1.1,8.6-2.1,8.9-6.6c0,0,0-0.1,0-0.1
                            c3.1-44.7,28.1-65.2,44.7-78.8c8.3-6.8,14.8-12.1,14.8-17.4c0-16.4-4.7-27.3-9.7-38.8c-9.4-21.7-19.1-44.1,1.3-102.9
                            c3.5-10.1,8.9-13.8,13.2-16.7c3.9-2.6,6.5-4.3,7.2-10.2C969,16.7,968.9,0,968.9,0H705.1C705.1,0,705.2,9.4,696,17.6z"/>
                        <path fill="#00A784" d="M1366,0H974.9c0,0,0.1,17.1-1.5,29.6c-1.1,8.5-5.5,11.5-9.8,14.4c-4,2.7-8.1,5.4-10.9,13.7
                            c-19.6,56.6-10.4,78-1.4,98.6c5,11.6,10.2,23.6,10.2,41.2c0,8.1-7.5,14.3-17,22.1c-16.7,13.7-39.6,32.4-42.5,74.5
                            c-1.3,19.1,34.4,106.7,56.1,113.3c18.9,5.8,73-6,87.6,0c14.6,6,88.4,73,101.3,73.8s50.6-21.5,67-20.6s48.1,30.9,83.3,30
                            c33.4-0.8,69-27.2,69-27.2V0z"/>
                        <path fill="#00A784" d="M798.5,294.7c6.4,16.9,11.9,31.5,14.9,36.6c5.2,9,41.8,27,70.4,41.4c11.5,5.7,29.2-16,12.9-61.4
                            c-0.2-1.5-1.3-2.6-2.8-3l-95.9-23.2c-1.5-0.4-2.7,1.1-2.2,2.5C796.7,290,797.6,292.3,798.5,294.7z"/>
                        </svg>