<?xml version="1.0" encoding="utf-8"?>
<!-- Generator: Adobe Illustrator 18.0.0, SVG Export Plug-In . SVG Version: 6.00 Build 0)  -->
<!DOCTYPE svg PUBLIC "-//W3C//DTD SVG 1.1//EN" "http://www.w3.org/Graphics/SVG/1.1/DTD/svg11.dtd">
<svg version="1.1" id="Layer_2" xmlns="http://www.w3.org/2000/svg" xmlns:xlink="http://www.w3.org/1999/xlink" x="0px"
  y="0px" viewBox="0 309.7 600.1 580.5" enable-background="new 0 309.7 600.1 580.5" xml:space="preserve">

  <g pointer-events="none">
    <rect x="372" y="471.7" fill="#000" width="16.5" height="16.5" />
    <path fill="#FF6666"
      d="M388,474c0-0.4-0.4-0.7-0.7-0.7c-0.4,0-0.6,0.2-0.7,0.5l-9.1,3.7v-1.8h0.4c0,0-2.5-1.3-5.1,0h0.3v4.6h1.4
                                    l-1.9,6.3h2.8l0,0l0,0h2.8l-1.9-6.3h1.4v-0.3l9.6-5.2c0,0,0,0,0.1,0v3.8c-0.1,0-0.2,0.2-0.2,0.3s0.1,0.3,0.2,0.3v0.4l0,0
                                    c0.1,0.1,0.2,0.2,0.2,0.3c0,0,0,0.1-0.1,0.1c-0.1,0-0.2,0-0.2-0.1c0,0-0.1,0-0.2,0c0,0,0,0.1,0,0.2c0.1,0.2,0.3,0.2,0.4,0.2
                                    c0,0,0,0,0.1,0c0.1,0,0.3-0.1,0.3-0.3c0-0.2,0-0.4-0.2-0.5v-0.2c0.1,0,0.2-0.2,0.2-0.3s-0.1-0.3-0.2-0.3v-3.8
                                    C387.7,474.7,388,474.4,388,474z M379.3,477.1l1.3,0.8l-1.3,0.7V477.1z M379.1,478.6l-1.4-1l1.4-0.6V478.6z M379.5,476.9l1.3-0.5
                                    v1.3L379.5,476.9z M381,476.5l1,0.7l-1,0.5V476.5z M381.1,476.3l1-0.4v1.1L381.1,476.3z M382.3,475.9l0.8,0.7l-0.8,0.4V475.9z
                                     M382.4,475.7l0.8-0.4v1L382.4,475.7z M383.4,475.5l0.7,0.6l-0.7,0.4V475.5z M383.6,475.2l0.7-0.3v0.8L383.6,475.2z M384.5,475
                                    l0.7,0.5l-0.7,0.4V475z M384.7,474.8l0.7-0.3v0.7L384.7,474.8z M385.5,474.6l0.6,0.4l-0.6,0.3V474.6z M385.7,474.4l0.5-0.2v0.6
                                    L385.7,474.4z M373.5,476.2h1.4v1.4h-1.4V476.2z M375.3,480.3h0.5l-0.5,2V480.3z M375,482.1l-0.4-1.8h0.4V482.1z M375,483.1h-1.3
                                    l0.8-2.5L375,483.1z M375,483.3v2.6l-1.2-2.6H375z M375.3,483.3h1.3l-1.3,2.5V483.3z M375.3,483.1l0.6-2.5l0.7,2.5H375.3z
                                     M373.6,483.5l1.4,2.9h-2.2L373.6,483.5z M375.3,486.3l1.4-2.9l0.9,2.9H375.3z M376.8,477.5h-1.4v-1.4h1.4V477.5z M377.4,477.7
                                    l1.6,1.1l-1.6,0.8V477.7z M386.5,474.8v-0.7l0,0c0,0.2,0.1,0.4,0.3,0.5L386.5,474.8z" />
  </g>
  <g>
    <rect x="387.1" y="488.1" fill="#FFFFFF" fill-opacity="0" width="16.5" height="16.5" />
    <path fill="#FF6666"
      d="M403.1,490.5c0-0.4-0.4-0.7-0.7-0.7c-0.4,0-0.6,0.2-0.7,0.5l-9.1,3.7v-1.8h0.4c0,0-2.5-1.3-5.1,0h0.3v4.6
                                    h1.4l-1.9,6.3h2.8l0,0l0,0h2.8l-1.9-6.3h1.4v-0.3l9.6-5.2c0,0,0,0,0.1,0v3.8c-0.1,0-0.2,0.2-0.2,0.3s0.1,0.3,0.2,0.3v0.4l0,0
                                    c0.1,0.1,0.2,0.2,0.2,0.3c0,0,0,0.1-0.1,0.1c-0.1,0-0.2,0-0.2-0.1c0,0-0.1,0-0.2,0c0,0,0,0.1,0,0.2c0.1,0.2,0.3,0.2,0.4,0.2
                                    c0,0,0,0,0.1,0c0.1,0,0.3-0.1,0.3-0.3c0-0.2,0-0.4-0.2-0.5v-0.2c0.1,0,0.2-0.2,0.2-0.3s-0.1-0.3-0.2-0.3v-3.8
                                    C402.8,491.2,403.1,490.9,403.1,490.5z M394.4,493.5l1.3,0.8l-1.3,0.7V493.5z M394.2,495.1l-1.4-1l1.4-0.6V495.1z M394.6,493.4
                                    l1.3-0.5v1.3L394.6,493.4z M396.1,492.9l1,0.7l-1,0.5V492.9z M396.2,492.7l1-0.4v1.1L396.2,492.7z M397.4,492.4l0.8,0.7l-0.8,0.4
                                    V492.4z M397.5,492.2l0.8-0.4v1L397.5,492.2z M398.6,491.9l0.7,0.6l-0.7,0.4V491.9z M398.7,491.7l0.7-0.3v0.8L398.7,491.7z
                                     M399.7,491.4l0.7,0.5l-0.7,0.4V491.4z M399.8,491.3l0.7-0.3v0.7L399.8,491.3z M400.7,491l0.6,0.4l-0.6,0.3V491z M400.8,490.8
                                    l0.5-0.2v0.6L400.8,490.8z M388.6,492.7h1.4v1.4h-1.4V492.7z M390.4,496.7h0.5l-0.5,2V496.7z M390.2,498.6l-0.4-1.8h0.4V498.6z
                                     M390.1,499.6h-1.3l0.8-2.5L390.1,499.6z M390.2,499.8v2.6l-1.2-2.6H390.2z M390.4,499.8h1.3l-1.3,2.5V499.8z M390.4,499.6
                                    l0.6-2.5l0.7,2.5H390.4z M388.7,499.9l1.4,2.9h-2.2L388.7,499.9z M390.4,502.8l1.4-2.9l0.9,2.9H390.4z M391.9,494h-1.4v-1.4h1.4
                                    V494z M392.5,494.2l1.6,1.1l-1.6,0.8V494.2z M401.6,491.2v-0.7l0,0c0,0.2,0.1,0.4,0.3,0.5L401.6,491.2z" />
  </g>
  <g>
    <rect x="403.5" y="499.4" fill="#FFFFFF" fill-opacity="0" width="16.5" height="16.5" />
    <path fill="#FF6666" d="M419.5,501.7c0-0.4-0.4-0.7-0.7-0.7c-0.4,0-0.6,0.2-0.7,0.5l-9.1,3.7v-1.8h0.4c0,0-2.5-1.3-5.1,0h0.3v4.6
                                    h1.4l-1.9,6.3h2.8l0,0l0,0h2.8l-1.9-6.3h1.4v-0.3l9.6-5.2c0,0,0,0,0.1,0v3.8c-0.1,0-0.2,0.2-0.2,0.3s0.1,0.3,0.2,0.3v0.4l0,0
                                    c0.1,0.1,0.2,0.2,0.2,0.3c0,0,0,0.1-0.1,0.1c-0.1,0-0.2,0-0.2-0.1c0,0-0.1,0-0.2,0c0,0,0,0.1,0,0.2c0.1,0.2,0.3,0.2,0.4,0.2
                                    c0,0,0,0,0.1,0c0.1,0,0.3-0.1,0.3-0.3c0-0.2,0-0.4-0.2-0.5v-0.2c0.1,0,0.2-0.2,0.2-0.3c0-0.1-0.1-0.3-0.2-0.3v-3.8
                                    C419.2,502.4,419.5,502.1,419.5,501.7z M410.8,504.8l1.3,0.8l-1.3,0.7V504.8z M410.6,506.3l-1.4-1l1.4-0.6V506.3z M411,504.6
                                    l1.3-0.5v1.3L411,504.6z M412.5,504.2l1,0.7l-1,0.5V504.2z M412.6,504l1-0.4v1.1L412.6,504z M413.8,503.7l0.8,0.7l-0.8,0.4V503.7z
                                     M413.9,503.4l0.8-0.4v1L413.9,503.4z M415,503.2l0.7,0.6l-0.7,0.4V503.2z M415.1,502.9l0.7-0.3v0.8L415.1,502.9z M416.1,502.7
                                    l0.7,0.5l-0.7,0.4V502.7z M416.2,502.5l0.7-0.3v0.7L416.2,502.5z M417.1,502.3l0.6,0.4l-0.6,0.3V502.3z M417.2,502.1l0.5-0.2v0.6
                                    L417.2,502.1z M405,503.9h1.4v1.4H405V503.9z M406.8,508h0.5l-0.5,2V508z M406.6,509.8l-0.4-1.8h0.4V509.8z M406.5,510.8h-1.3
                                    l0.8-2.5L406.5,510.8z M406.6,511v2.6l-1.2-2.6H406.6z M406.8,511h1.3l-1.3,2.5V511z M406.8,510.8l0.6-2.5l0.7,2.5H406.8z
                                     M405.1,511.2l1.4,2.9h-2.2L405.1,511.2z M406.8,514l1.4-2.9l0.9,2.9H406.8z M408.3,505.2h-1.4v-1.4h1.4V505.2z M408.9,505.5
                                    l1.6,1.1l-1.6,0.8V505.5z M418,502.5v-0.7l0,0c0,0.2,0.1,0.4,0.3,0.5L418,502.5z" />
  </g>
  <g>
    <rect x="436.4" y="552.4" fill="#FFFFFF" fill-opacity="0" width="16.5" height="16.5" />
    <path fill="#FF6666" d="M452.4,554.7c0-0.4-0.4-0.7-0.7-0.7c-0.4,0-0.6,0.2-0.7,0.5l-9.1,3.7v-1.8h0.4c0,0-2.5-1.3-5.1,0h0.3v4.6
                                    h1.4l-1.9,6.3h2.8l0,0l0,0h2.8l-1.9-6.3h1.4v-0.3l9.6-5.2c0,0,0,0,0.1,0v3.8c-0.1,0-0.2,0.2-0.2,0.3s0.1,0.3,0.2,0.3v0.4l0,0
                                    c0.1,0.1,0.2,0.2,0.2,0.3c0,0,0,0.1-0.1,0.1c-0.1,0-0.2,0-0.2-0.1c0,0-0.1,0-0.2,0c0,0,0,0.1,0,0.2c0.1,0.2,0.3,0.2,0.4,0.2
                                    c0,0,0,0,0.1,0c0.1,0,0.3-0.1,0.3-0.3c0-0.2,0-0.4-0.2-0.5v-0.2c0.1,0,0.2-0.2,0.2-0.3c0-0.1-0.1-0.3-0.2-0.3v-3.8
                                    C452.1,555.5,452.4,555.1,452.4,554.7z M443.7,557.8l1.3,0.8l-1.3,0.7V557.8z M443.5,559.4l-1.4-1l1.4-0.6V559.4z M443.9,557.6
                                    l1.3-0.5v1.3L443.9,557.6z M445.4,557.2l1,0.7l-1,0.5V557.2z M445.5,557l1-0.4v1.1L445.5,557z M446.7,556.7l0.8,0.7l-0.8,0.4
                                    V556.7z M446.8,556.5l0.8-0.4v1L446.8,556.5z M447.9,556.2l0.7,0.6l-0.7,0.4V556.2z M448,556l0.7-0.3v0.8L448,556z M449,555.7
                                    l0.7,0.5l-0.7,0.4V555.7z M449.1,555.5l0.7-0.3v0.7L449.1,555.5z M450,555.3l0.6,0.4L450,556V555.3z M450.1,555.1l0.5-0.2v0.6
                                    L450.1,555.1z M437.9,556.9h1.4v1.4h-1.4V556.9z M439.7,561h0.5l-0.5,2V561z M439.5,562.8l-0.4-1.8h0.4V562.8z M439.4,563.8h-1.3
                                    l0.8-2.5L439.4,563.8z M439.5,564.1v2.6l-1.2-2.6H439.5z M439.7,564.1h1.3l-1.3,2.5V564.1z M439.7,563.8l0.6-2.5l0.7,2.5H439.7z
                                     M438,564.2l1.4,2.9h-2.2L438,564.2z M439.7,567l1.4-2.9l0.9,2.9H439.7z M441.2,558.3h-1.4v-1.4h1.4V558.3z M441.8,558.5l1.6,1.1
                                    l-1.6,0.8V558.5z M450.9,555.5v-0.7l0,0c0,0.2,0.1,0.4,0.3,0.5L450.9,555.5z" />
  </g>
  <g>

    <rect x="407.1" y="678.6" fill="#FFFFFF" fill-opacity="0" width="16.5" height="16.5" />
    <path fill="#FF6666"
      d="M423.1,680.9c0-0.4-0.4-0.7-0.7-0.7c-0.4,0-0.6,0.2-0.7,0.5l-9.1,3.7v-1.8h0.4c0,0-2.5-1.3-5.1,0h0.3v4.6
                                    h1.4l-1.9,6.3h2.8l0,0l0,0h2.8l-1.9-6.3h1.4v-0.3l9.6-5.2c0,0,0,0,0.1,0v3.8c-0.1,0-0.2,0.2-0.2,0.3c0,0.1,0.1,0.3,0.2,0.3v0.4
                                    l0,0c0.1,0.1,0.2,0.2,0.2,0.3c0,0,0,0.1-0.1,0.1c-0.1,0-0.2,0-0.2-0.1c0,0-0.1,0-0.2,0c0,0,0,0.1,0,0.2c0.1,0.2,0.3,0.2,0.4,0.2
                                    c0,0,0,0,0.1,0c0.1,0,0.3-0.1,0.3-0.3c0-0.2,0-0.4-0.2-0.5V686c0.1,0,0.2-0.2,0.2-0.3s-0.1-0.3-0.2-0.3v-3.8
                                    C422.8,681.6,423.1,681.3,423.1,680.9z M414.4,684l1.3,0.8l-1.3,0.7V684z M414.2,685.5l-1.4-1l1.4-0.6V685.5z M414.6,683.8
                                    l1.3-0.5v1.3L414.6,683.8z M416.1,683.4l1,0.7l-1,0.5V683.4z M416.2,683.1l1-0.4v1.1L416.2,683.1z M417.4,682.8l0.8,0.7l-0.8,0.4
                                    V682.8z M417.5,682.6l0.8-0.4v1L417.5,682.6z M418.6,682.4l0.7,0.6l-0.7,0.4V682.4z M418.7,682.1l0.7-0.3v0.8L418.7,682.1z
                                     M419.7,681.9l0.7,0.5l-0.7,0.4V681.9z M419.8,681.7l0.7-0.3v0.7L419.8,681.7z M420.7,681.5l0.6,0.4l-0.6,0.3V681.5z M420.8,681.3
                                    l0.5-0.2v0.6L420.8,681.3z M408.6,683.1h1.4v1.4h-1.4V683.1z M410.4,687.1h0.5l-0.5,2V687.1z M410.2,689l-0.4-1.8h0.4V689z
                                     M410.1,690h-1.3l0.8-2.5L410.1,690z M410.2,690.2v2.6l-1.2-2.6H410.2z M410.4,690.2h1.3l-1.3,2.5V690.2z M410.4,690l0.6-2.5
                                    l0.7,2.5H410.4z M408.7,690.4l1.4,2.9h-2.2L408.7,690.4z M410.4,693.2l1.4-2.9l0.9,2.9H410.4z M411.9,684.4h-1.4v-1.4h1.4V684.4z
                                     M412.5,684.6l1.6,1.1l-1.6,0.8V684.6z M421.6,681.7V681l0,0c0,0.2,0.1,0.4,0.3,0.5L421.6,681.7z" />
  </g>
  <g>

    <rect x="180.9" y="711.9" fill="#FFFFFF" fill-opacity="0" width="16.5" height="16.5" />
    <path fill="#FF6666"
      d="M196.9,714.2c0-0.4-0.4-0.7-0.7-0.7c-0.4,0-0.6,0.2-0.7,0.5l-9.1,3.7v-1.8h0.4c0,0-2.5-1.3-5.1,0h0.3v4.6
                                    h1.4l-1.9,6.3h2.8l0,0l0,0h2.8l-1.9-6.3h1.4v-0.3l9.6-5.2c0,0,0,0,0.1,0v3.8c-0.1,0-0.2,0.2-0.2,0.3s0.1,0.3,0.2,0.3v0.4l0,0
                                    c0.1,0.1,0.2,0.2,0.2,0.3c0,0,0,0.1-0.1,0.1c-0.1,0-0.2,0-0.2-0.1c0,0-0.1,0-0.2,0c0,0,0,0.1,0,0.2c0.1,0.2,0.3,0.2,0.4,0.2
                                    c0,0,0,0,0.1,0c0.1,0,0.3-0.1,0.3-0.3c0-0.2,0-0.4-0.2-0.5v-0.2c0.1,0,0.2-0.2,0.2-0.3s-0.1-0.3-0.2-0.3v-3.8
                                    C196.7,714.9,196.9,714.6,196.9,714.2z M188.3,717.3l1.3,0.8l-1.3,0.7V717.3z M188.1,718.9l-1.4-1l1.4-0.6V718.9z M188.4,717.1
                                    l1.3-0.5v1.3L188.4,717.1z M189.9,716.7l1,0.7l-1,0.5V716.7z M190.1,716.5l1-0.4v1.1L190.1,716.5z M191.3,716.2l0.8,0.7l-0.8,0.4
                                    V716.2z M191.3,716l0.8-0.4v1L191.3,716z M192.4,715.7l0.7,0.6l-0.7,0.4V715.7z M192.5,715.5l0.7-0.3v0.8L192.5,715.5z
                                     M193.5,715.2l0.7,0.5l-0.7,0.4V715.2z M193.6,715l0.7-0.3v0.7L193.6,715z M194.5,714.8l0.6,0.4l-0.6,0.3V714.8z M194.6,714.6
                                    l0.5-0.2v0.6L194.6,714.6z M182.4,716.4h1.4v1.4h-1.4V716.4z M184.2,720.5h0.5l-0.5,2V720.5z M184,722.3l-0.4-1.8h0.4V722.3z
                                     M184,723.3h-1.3l0.8-2.5L184,723.3z M184,723.6v2.6l-1.2-2.6H184z M184.2,723.6h1.3l-1.3,2.5V723.6z M184.3,723.3l0.6-2.5
                                    l0.7,2.5H184.3z M182.6,723.7l1.4,2.9h-2.2L182.6,723.7z M184.3,726.5l1.4-2.9l0.9,2.9H184.3z M185.7,717.8h-1.4v-1.4h1.4V717.8z
                                     M186.3,718l1.6,1.1l-1.6,0.8V718z M195.4,715v-0.7l0,0c0,0.2,0.1,0.4,0.3,0.5L195.4,715z" />
  </g>
  <g>
    <rect x="87.5" y="805.4" fill="#FFFFFF" fill-opacity="0" width="16.5" height="16.5" />
    <path fill="#FF6666" d="M103.4,807.7c0-0.4-0.4-0.7-0.7-0.7c-0.4,0-0.6,0.2-0.7,0.5l-9.1,3.7v-1.8h0.4c0,0-2.5-1.3-5.1,0h0.3v4.6
                                    h1.4l-1.9,6.3h2.8l0,0l0,0h2.8l-1.9-6.3h1.4v-0.3l9.6-5.2c0,0,0,0,0.1,0v3.8c-0.1,0-0.2,0.2-0.2,0.3c0,0.1,0.1,0.3,0.2,0.3v0.4
                                    l0,0c0.1,0.1,0.2,0.2,0.2,0.3c0,0,0,0.1-0.1,0.1c-0.1,0-0.2,0-0.2-0.1c0,0-0.1,0-0.2,0c0,0,0,0.1,0,0.2c0.1,0.2,0.3,0.2,0.4,0.2
                                    c0,0,0,0,0.1,0c0.1,0,0.3-0.1,0.3-0.3c0-0.2,0-0.4-0.2-0.5v-0.2c0.1,0,0.2-0.2,0.2-0.3s-0.1-0.3-0.2-0.3v-3.8
                                    C103.2,808.4,103.4,808.1,103.4,807.7z M94.8,810.8l1.3,0.8l-1.3,0.7V810.8z M94.6,812.3l-1.4-1l1.4-0.6V812.3z M95,810.6l1.3-0.5
                                    v1.3L95,810.6z M96.5,810.2l1,0.7l-1,0.5V810.2z M96.6,810l1-0.4v1.1L96.6,810z M97.8,809.7l0.8,0.7l-0.8,0.4V809.7z M97.9,809.4
                                    l0.8-0.4v1L97.9,809.4z M98.9,809.2l0.7,0.6l-0.7,0.4V809.2z M99,809l0.7-0.3v0.8L99,809z M100,808.7l0.7,0.5l-0.7,0.4V808.7z
                                     M100.1,808.5l0.7-0.3v0.7L100.1,808.5z M101,808.3l0.6,0.4L101,809V808.3z M101.2,808.1l0.5-0.2v0.6L101.2,808.1z M88.9,809.9
                                    h1.4v1.4h-1.4V809.9z M90.7,814h0.5l-0.5,2V814z M90.5,815.8l-0.4-1.8h0.4V815.8z M90.5,816.8h-1.3l0.8-2.5L90.5,816.8z M90.5,817
                                    v2.6l-1.2-2.6H90.5z M90.7,817H92l-1.3,2.5V817z M90.8,816.8l0.6-2.5l0.7,2.5H90.8z M89.1,817.2l1.4,2.9h-2.2L89.1,817.2z
                                     M90.8,820l1.4-2.9l0.9,2.9H90.8z M92.2,811.2h-1.4v-1.4h1.4V811.2z M92.9,811.5l1.6,1.1l-1.6,0.8V811.5z M101.9,808.5v-0.7l0,0
                                    c0,0.2,0.1,0.4,0.3,0.5L101.9,808.5z" />
  </g>
  <g>
    <rect x="337.4" y="439.1" fill="#FFFFFF" fill-opacity="0" width="16.5" height="16.5" />
    <path fill="#FF6666"
      d="M353.4,441.4c0-0.4-0.4-0.7-0.7-0.7c-0.4,0-0.6,0.2-0.7,0.5l-9.1,3.7V443h0.4c0,0-2.5-1.3-5.1,0h0.3v4.6
                                    h1.4l-1.9,6.3h2.8l0,0l0,0h2.8l-1.9-6.3h1.4v-0.3l9.6-5.2c0,0,0,0,0.1,0v3.8c-0.1,0-0.2,0.2-0.2,0.3c0,0.1,0.1,0.3,0.2,0.3v0.4
                                    l0,0c0.1,0.1,0.2,0.2,0.2,0.3c0,0,0,0.1-0.1,0.1c-0.1,0-0.2,0-0.2-0.1c0,0-0.1,0-0.2,0c0,0,0,0.1,0,0.2c0.1,0.2,0.3,0.2,0.4,0.2
                                    c0,0,0,0,0.1,0c0.1,0,0.3-0.1,0.3-0.3c0-0.2,0-0.4-0.2-0.5v-0.2c0.1,0,0.2-0.2,0.2-0.3c0-0.1-0.1-0.3-0.2-0.3v-3.8
                                    C353.1,442.1,353.4,441.8,353.4,441.4z M344.7,444.5l1.3,0.8l-1.3,0.7V444.5z M344.5,446l-1.4-1l1.4-0.6V446z M344.9,444.3
                                    l1.3-0.5v1.3L344.9,444.3z M346.4,443.9l1,0.7l-1,0.5V443.9z M346.5,443.6l1-0.4v1.1L346.5,443.6z M347.7,443.3l0.8,0.7l-0.8,0.4
                                    V443.3z M347.9,443.1l0.8-0.4v1L347.9,443.1z M348.9,442.8l0.7,0.6l-0.7,0.4V442.8z M349,442.6l0.7-0.3v0.8L349,442.6z M350,442.4
                                    l0.7,0.5l-0.7,0.4V442.4z M350.1,442.2l0.7-0.3v0.7L350.1,442.2z M351,442l0.6,0.4l-0.6,0.3V442z M351.2,441.7l0.5-0.2v0.6
                                    L351.2,441.7z M338.9,443.6h1.4v1.4h-1.4V443.6z M340.7,447.6h0.5l-0.5,2V447.6z M340.5,449.5l-0.4-1.8h0.4V449.5z M340.5,450.5
                                    h-1.3l0.8-2.5L340.5,450.5z M340.5,450.7v2.6l-1.2-2.6H340.5z M340.7,450.7h1.3l-1.3,2.5V450.7z M340.7,450.5l0.6-2.5l0.7,2.5
                                    H340.7z M339,450.8l1.4,2.9h-2.2L339,450.8z M340.7,453.7l1.4-2.9l0.9,2.9H340.7z M342.2,444.9h-1.4v-1.4h1.4V444.9z M342.8,445.1
                                    l1.6,1.1l-1.6,0.8V445.1z M351.9,442.1v-0.7l0,0c0,0.2,0.1,0.4,0.3,0.5L351.9,442.1z" />
  </g>
  <g>
    <rect x="329.7" y="418" fill="#FFFFFF" fill-opacity="0" width="16.5" height="16.5" />
    <path fill="#FF6666"
      d="M345.6,420.3c0-0.4-0.4-0.7-0.7-0.7c-0.4,0-0.6,0.2-0.7,0.5l-9.1,3.7V422h0.4c0,0-2.5-1.3-5.1,0h0.3v4.6
                                    h1.4l-1.9,6.3h2.8l0,0l0,0h2.8l-1.9-6.3h1.4v-0.3l9.6-5.2c0,0,0,0,0.1,0v3.8c-0.1,0-0.2,0.2-0.2,0.3s0.1,0.3,0.2,0.3v0.4l0,0
                                    c0.1,0.1,0.2,0.2,0.2,0.3c0,0,0,0.1-0.1,0.1c-0.1,0-0.2,0-0.2-0.1c0,0-0.1,0-0.2,0c0,0,0,0.1,0,0.2c0.1,0.2,0.3,0.2,0.4,0.2
                                    c0,0,0,0,0.1,0c0.1,0,0.3-0.1,0.3-0.3c0-0.2,0-0.4-0.2-0.5v-0.2c0.1,0,0.2-0.2,0.2-0.3s-0.1-0.3-0.2-0.3V421
                                    C345.4,421,345.6,420.7,345.6,420.3z M337,423.4l1.3,0.8L337,425V423.4z M336.8,425l-1.4-1l1.4-0.6V425z M337.2,423.2l1.3-0.5v1.3
                                    L337.2,423.2z M338.7,422.8l1,0.7l-1,0.5V422.8z M338.8,422.6l1-0.4v1.1L338.8,422.6z M340,422.3l0.8,0.7l-0.8,0.4V422.3z
                                     M340.1,422.1l0.8-0.4v1L340.1,422.1z M341.2,421.8l0.7,0.6l-0.7,0.4V421.8z M341.3,421.6l0.7-0.3v0.8L341.3,421.6z M342.2,421.3
                                    l0.7,0.5l-0.7,0.4V421.3z M342.3,421.1l0.7-0.3v0.7L342.3,421.1z M343.2,420.9l0.6,0.4l-0.6,0.3V420.9z M343.4,420.7l0.5-0.2v0.6
                                    L343.4,420.7z M331.1,422.5h1.4v1.4h-1.4V422.5z M332.9,426.6h0.5l-0.5,2V426.6z M332.7,428.4l-0.4-1.8h0.4V428.4z M332.7,429.4
                                    h-1.3l0.8-2.5L332.7,429.4z M332.7,429.7v2.6l-1.2-2.6H332.7z M332.9,429.7h1.3l-1.3,2.5V429.7z M333,429.4l0.6-2.5l0.7,2.5H333z
                                     M331.3,429.8l1.4,2.9h-2.2L331.3,429.8z M333,432.6l1.4-2.9l0.9,2.9H333z M334.4,423.9h-1.4v-1.4h1.4V423.9z M335.1,424.1
                                    l1.6,1.1l-1.6,0.8V424.1z M344.1,421.1v-0.7l0,0c0,0.2,0.1,0.4,0.3,0.5L344.1,421.1z" />
  </g>
  <g>
    <rect x="322.6" y="399.8" fill="#FFFFFF" fill-opacity="0" width="16.5" height="16.5" />
    <path fill="#FF6666"
      d="M338.6,402.1c0-0.4-0.4-0.7-0.7-0.7c-0.4,0-0.6,0.2-0.7,0.5l-9.1,3.7v-1.8h0.4c0,0-2.5-1.3-5.1,0h0.3v4.6
                                    h1.4l-1.9,6.3h2.8l0,0l0,0h2.8l-1.9-6.3h1.4V408l9.6-5.2c0,0,0,0,0.1,0v3.8c-0.1,0-0.2,0.2-0.2,0.3s0.1,0.3,0.2,0.3v0.4l0,0
                                    c0.1,0.1,0.2,0.2,0.2,0.3c0,0,0,0.1-0.1,0.1c-0.1,0-0.2,0-0.2-0.1c0,0-0.1,0-0.2,0c0,0,0,0.1,0,0.2c0.1,0.2,0.3,0.2,0.4,0.2
                                    c0,0,0,0,0.1,0c0.1,0,0.3-0.1,0.3-0.3c0-0.2,0-0.4-0.2-0.5v-0.2c0.1,0,0.2-0.2,0.2-0.3s-0.1-0.3-0.2-0.3v-3.8
                                    C338.3,402.8,338.6,402.5,338.6,402.1z M329.9,405.2l1.3,0.8l-1.3,0.7V405.2z M329.7,406.7l-1.4-1l1.4-0.6V406.7z M330.1,405
                                    l1.3-0.5v1.3L330.1,405z M331.6,404.6l1,0.7l-1,0.5V404.6z M331.7,404.4l1-0.4v1.1L331.7,404.4z M332.9,404.1l0.8,0.7l-0.8,0.4
                                    V404.1z M333,403.8l0.8-0.4v1L333,403.8z M334,403.6l0.7,0.6l-0.7,0.4V403.6z M334.2,403.4l0.7-0.3v0.8L334.2,403.4z M335.1,403.1
                                    l0.7,0.5l-0.7,0.4V403.1z M335.3,402.9l0.7-0.3v0.7L335.3,402.9z M336.2,402.7l0.6,0.4l-0.6,0.3V402.7z M336.3,402.5l0.5-0.2v0.6
                                    L336.3,402.5z M324.1,404.3h1.4v1.4h-1.4V404.3z M325.9,408.4h0.5l-0.5,2V408.4z M325.7,410.2l-0.4-1.8h0.4V410.2z M325.6,411.2
                                    h-1.3l0.8-2.5L325.6,411.2z M325.7,411.5v2.6l-1.2-2.6H325.7z M325.9,411.5h1.3l-1.3,2.5V411.5z M325.9,411.2l0.6-2.5l0.7,2.5
                                    H325.9z M324.2,411.6l1.4,2.9h-2.2L324.2,411.6z M325.9,414.5l1.4-2.9l0.9,2.9H325.9z M327.4,405.7H326v-1.4h1.4V405.7z
                                     M328,405.9l1.6,1.1l-1.6,0.8V405.9z M337.1,402.9v-0.7l0,0c0,0.2,0.1,0.4,0.3,0.5L337.1,402.9z" />
  </g>
  <g>
    <rect x="302.2" y="397.9" fill="#FFFFFF" fill-opacity="0" width="16.5" height="16.5" />
    <path fill="#FF6666"
      d="M318.1,400.2c0-0.4-0.4-0.7-0.7-0.7c-0.4,0-0.6,0.2-0.7,0.5l-9.1,3.7v-1.8h0.4c0,0-2.5-1.3-5.1,0h0.3v4.6
                                    h1.4l-1.9,6.3h2.8l0,0l0,0h2.8l-1.9-6.3h1.4v-0.3l9.6-5.2c0,0,0,0,0.1,0v3.8c-0.1,0-0.2,0.2-0.2,0.3s0.1,0.3,0.2,0.3v0.4l0,0
                                    c0.1,0.1,0.2,0.2,0.2,0.3c0,0,0,0.1-0.1,0.1c-0.1,0-0.2,0-0.2-0.1c0,0-0.1,0-0.2,0c0,0,0,0.1,0,0.2c0.1,0.2,0.3,0.2,0.4,0.2
                                    c0,0,0,0,0.1,0c0.1,0,0.3-0.1,0.3-0.3c0-0.2,0-0.4-0.2-0.5v-0.2c0.1,0,0.2-0.2,0.2-0.3s-0.1-0.3-0.2-0.3v-3.8
                                    C317.9,400.9,318.1,400.6,318.1,400.2z M309.5,403.3l1.3,0.8l-1.3,0.7V403.3z M309.2,404.8l-1.4-1l1.4-0.6V404.8z M309.6,403.1
                                    l1.3-0.5v1.3L309.6,403.1z M311.1,402.7l1,0.7l-1,0.5V402.7z M311.2,402.4l1-0.4v1.1L311.2,402.4z M312.4,402.1l0.8,0.7l-0.8,0.4
                                    V402.1z M312.6,401.9l0.8-0.4v1L312.6,401.9z M313.6,401.7l0.7,0.6l-0.7,0.4V401.7z M313.7,401.5l0.7-0.3v0.8L313.7,401.5z
                                     M314.7,401.2l0.7,0.5l-0.7,0.4V401.2z M314.8,401l0.7-0.3v0.7L314.8,401z M315.7,400.8l0.6,0.4l-0.6,0.3V400.8z M315.8,400.6
                                    l0.5-0.2v0.6L315.8,400.6z M303.6,402.4h1.4v1.4h-1.4V402.4z M305.4,406.4h0.5l-0.5,2V406.4z M305.2,408.3l-0.4-1.8h0.4V408.3z
                                     M305.2,409.3h-1.3l0.8-2.5L305.2,409.3z M305.2,409.6v2.6l-1.2-2.6H305.2z M305.4,409.6h1.3l-1.3,2.5V409.6z M305.5,409.3
                                    l0.6-2.5l0.7,2.5H305.5z M303.8,409.7l1.4,2.9h-2.2L303.8,409.7z M305.5,412.5l1.4-2.9l0.9,2.9H305.5z M306.9,403.8h-1.4v-1.4h1.4
                                    V403.8z M307.5,404l1.6,1.1l-1.6,0.8V404z M316.6,401v-0.7l0,0c0,0.2,0.1,0.4,0.3,0.5L316.6,401z" />
  </g>
  <g>
    <rect x="284.9" y="388.2" fill="#FFFFFF" fill-opacity="0" width="16.5" height="16.5" />
    <path fill="#FF6666"
      d="M300.9,390.5c0-0.4-0.4-0.7-0.7-0.7c-0.4,0-0.6,0.2-0.7,0.5l-9.1,3.7v-1.8h0.4c0,0-2.5-1.3-5.1,0h0.3v4.6
                                    h1.4l-1.9,6.3h2.8l0,0l0,0h2.8l-1.9-6.3h1.4v-0.3l9.6-5.2c0,0,0,0,0.1,0v3.8c-0.1,0-0.2,0.2-0.2,0.3s0.1,0.3,0.2,0.3v0.4l0,0
                                    c0.1,0.1,0.2,0.2,0.2,0.3c0,0,0,0.1-0.1,0.1c-0.1,0-0.2,0-0.2-0.1c0,0-0.1,0-0.2,0c0,0,0,0.1,0,0.2c0.1,0.2,0.3,0.2,0.4,0.2
                                    c0,0,0,0,0.1,0c0.1,0,0.3-0.1,0.3-0.3c0-0.2,0-0.4-0.2-0.5v-0.2c0.1,0,0.2-0.2,0.2-0.3s-0.1-0.3-0.2-0.3v-3.8
                                    C300.6,391.2,300.9,390.9,300.9,390.5z M292.2,393.6l1.3,0.8l-1.3,0.7V393.6z M292,395.1l-1.4-1l1.4-0.6V395.1z M292.4,393.4
                                    l1.3-0.5v1.3L292.4,393.4z M293.9,392.9l1,0.7l-1,0.5V392.9z M294,392.8l1-0.4v1.1L294,392.8z M295.2,392.4l0.8,0.7l-0.8,0.4
                                    V392.4z M295.3,392.2l0.8-0.4v1L295.3,392.2z M296.4,391.9l0.7,0.6l-0.7,0.4V391.9z M296.5,391.8l0.7-0.3v0.8L296.5,391.8z
                                     M297.4,391.5l0.7,0.5l-0.7,0.4V391.5z M297.6,391.3l0.7-0.3v0.7L297.6,391.3z M298.5,391.1l0.6,0.4l-0.6,0.3V391.1z M298.6,390.9
                                    l0.5-0.2v0.6L298.6,390.9z M286.3,392.7h1.4v1.4h-1.4V392.7z M288.2,396.8h0.5l-0.5,2V396.8z M288,398.6l-0.4-1.8h0.4V398.6z
                                     M287.9,399.6h-1.3l0.8-2.5L287.9,399.6z M288,399.8v2.6l-1.2-2.6H288z M288.2,399.8h1.3l-1.3,2.5V399.8z M288.2,399.6l0.6-2.5
                                    l0.7,2.5H288.2z M286.5,400l1.4,2.9h-2.2L286.5,400z M288.2,402.8l1.4-2.9l0.9,2.9H288.2z M289.6,394h-1.4v-1.4h1.4V394z
                                     M290.3,394.3l1.6,1.1l-1.6,0.8V394.3z M299.3,391.3v-0.7l0,0c0,0.2,0.1,0.4,0.3,0.5L299.3,391.3z" />
  </g>
  <g>
    <rect x="380.2" y="424.6" fill="#FFFFFF" fill-opacity="0" width="16.5" height="16.5" />
    <path fill="#FF6666"
      d="M396.2,427c0-0.4-0.4-0.7-0.7-0.7c-0.4,0-0.6,0.2-0.7,0.5l-9.1,3.7v-1.8h0.4c0,0-2.5-1.3-5.1,0h0.3v4.6
                                    h1.4l-1.9,6.3h2.8l0,0l0,0h2.8l-1.9-6.3h1.4v-0.3l9.6-5.2c0,0,0,0,0.1,0v3.8c-0.1,0-0.2,0.2-0.2,0.3s0.1,0.3,0.2,0.3v0.4l0,0
                                    c0.1,0.1,0.2,0.2,0.2,0.3c0,0,0,0.1-0.1,0.1c-0.1,0-0.2,0-0.2-0.1c0,0-0.1,0-0.2,0c0,0,0,0.1,0,0.2c0.1,0.2,0.3,0.2,0.4,0.2
                                    c0,0,0,0,0.1,0c0.1,0,0.3-0.1,0.3-0.3c0-0.2,0-0.4-0.2-0.5v-0.2c0.1,0,0.2-0.2,0.2-0.3s-0.1-0.3-0.2-0.3v-3.8
                                    C395.9,427.6,396.2,427.3,396.2,427z M387.5,430.1l1.3,0.8l-1.3,0.7V430.1z M387.3,431.5l-1.4-1l1.4-0.6V431.5z M387.6,429.9
                                    l1.3-0.5v1.3L387.6,429.9z M389.1,429.4l1,0.7l-1,0.5V429.4z M389.3,429.2l1-0.4v1.1L389.3,429.2z M390.5,428.9l0.8,0.7l-0.8,0.4
                                    V428.9z M390.6,428.7l0.8-0.4v1L390.6,428.7z M391.6,428.4l0.7,0.6l-0.7,0.4V428.4z M391.8,428.2l0.7-0.3v0.8L391.8,428.2z
                                     M392.7,427.9l0.7,0.5l-0.7,0.4V427.9z M392.8,427.8l0.7-0.3v0.7L392.8,427.8z M393.8,427.5l0.6,0.4l-0.6,0.3V427.5z M393.9,427.3
                                    l0.5-0.2v0.6L393.9,427.3z M381.6,429.1h1.4v1.4h-1.4V429.1z M383.5,433.2h0.5l-0.5,2V433.2z M383.2,435.1l-0.4-1.8h0.4V435.1z
                                     M383.2,436.1h-1.3l0.8-2.5L383.2,436.1z M383.2,436.3v2.6l-1.2-2.6H383.2z M383.5,436.3h1.3l-1.3,2.5V436.3z M383.5,436.1
                                    l0.6-2.5l0.7,2.5H383.5z M381.8,436.4l1.4,2.9h-2.2L381.8,436.4z M383.5,439.3l1.4-2.9l0.9,2.9H383.5z M384.9,430.5h-1.4v-1.4h1.4
                                    V430.5z M385.6,430.7l1.6,1.1l-1.6,0.8V430.7z M394.6,427.7V427l0,0c0,0.2,0.1,0.4,0.3,0.5L394.6,427.7z" />
  </g>
  <g>
    <rect x="357.9" y="420.1" fill="#FFFFFF" fill-opacity="0" width="16.5" height="16.5" />
    <path fill="#FF6666"
      d="M358.9,423.1v3.8c-0.1,0-0.2,0.2-0.2,0.3c0,0.1,0.1,0.3,0.2,0.3v0.2c-0.2,0.1-0.3,0.3-0.2,0.5
                                    c0,0.1,0.1,0.3,0.3,0.3c0,0,0,0,0.1,0c0.1,0,0.3,0,0.4-0.2c0,0,0-0.1,0-0.2c0,0-0.1,0-0.2,0c-0.1,0.1-0.2,0.2-0.2,0.1
                                    c0,0-0.1,0-0.1-0.1c0-0.1,0-0.2,0.2-0.3l0,0v-0.4c0.1,0,0.2-0.2,0.2-0.3s-0.1-0.3-0.2-0.3v-3.8c0,0,0,0,0.1,0l9.6,5.2v0.3h1.4
                                    l-1.9,6.3h2.8l0,0l0,0h2.8l-1.9-6.3h1.4V424h0.3c-2.5-1.3-5.1,0-5.1,0h0.4v1.8l-9.1-3.7c-0.1-0.3-0.4-0.5-0.7-0.5
                                    c-0.4,0-0.7,0.4-0.7,0.7C358.3,422.7,358.6,423,358.9,423.1z M367,426.9l-1.3-0.7l1.3-0.8V426.9z M367.2,425.4l1.4,0.6l-1.4,1
                                    V425.4z M365.5,426v-1.3l1.3,0.5L365.5,426z M365.3,426.1l-1-0.5l1-0.7V426.1z M364.2,425.3v-1.1l1,0.4L364.2,425.3z M364,425.4
                                    l-0.8-0.4l0.8-0.7V425.4z M363,424.6v-1l0.8,0.4L363,424.6z M362.8,424.7l-0.7-0.4l0.7-0.6V424.7z M362,424.1v-0.8l0.7,0.3
                                    L362,424.1z M361.7,424.1l-0.7-0.4l0.7-0.5V424.1z M360.9,423.6v-0.7l0.7,0.3L360.9,423.6z M360.7,423.6l-0.6-0.3l0.6-0.4V423.6z
                                     M360.1,423.1v-0.6l0.5,0.2L360.1,423.1z M372.8,425.8h-1.4v-1.4h1.4V425.8z M371,430.5l-0.5-2h0.5V430.5z M371.2,428.6h0.4
                                    l-0.4,1.8V428.6z M371.8,428.9l0.8,2.5h-1.3L371.8,428.9z M372.4,431.6l-1.2,2.6v-2.6H372.4z M371,434.2l-1.3-2.5h1.3V434.2z
                                     M369.6,431.4l0.7-2.5l0.6,2.5H369.6z M373.5,434.6h-2.2l1.4-2.9L373.5,434.6z M368.6,434.6l0.9-2.9l1.4,2.9H368.6z M369.5,424.5
                                    h1.4v1.4h-1.4V424.5z M368.9,428l-1.6-0.8l1.6-1.1V428z M359.5,422.9c0.2-0.1,0.3-0.3,0.3-0.5l0,0v0.7L359.5,422.9z" />
  </g>
  <g>
    <rect x="346.7" y="403" fill="#FFFFFF" fill-opacity="0" width="16.5" height="16.5" />
    <path fill="#FF6666"
      d="M347.7,406v3.8c-0.1,0-0.2,0.2-0.2,0.3s0.1,0.3,0.2,0.3v0.2c-0.2,0.1-0.3,0.3-0.2,0.5
                                    c0,0.1,0.1,0.3,0.3,0.3c0,0,0,0,0.1,0c0.1,0,0.3,0,0.4-0.2c0,0,0-0.1,0-0.2c0,0-0.1,0-0.2,0c-0.1,0.1-0.2,0.2-0.2,0.1
                                    c0,0-0.1,0-0.1-0.1c0-0.1,0-0.2,0.2-0.3l0,0v-0.4c0.1,0,0.2-0.2,0.2-0.3s-0.1-0.3-0.2-0.3v-3.8c0,0,0,0,0.1,0l9.6,5.2v0.3h1.4
                                    l-1.9,6.3h2.8l0,0l0,0h2.8l-1.9-6.3h1.4V407h0.3c-2.5-1.3-5.1,0-5.1,0h0.4v1.8l-9.1-3.7c-0.1-0.3-0.4-0.5-0.7-0.5
                                    c-0.4,0-0.7,0.4-0.7,0.7C347.1,405.7,347.4,406,347.7,406z M355.8,409.9l-1.3-0.7l1.3-0.8V409.9z M356,408.4l1.4,0.6l-1.4,1V408.4
                                    z M354.3,409v-1.3l1.3,0.5L354.3,409z M354.1,409l-1-0.5l1-0.7V409z M353,408.3v-1.1l1,0.4L353,408.3z M352.8,408.3l-0.8-0.4
                                    l0.8-0.7V408.3z M351.8,407.6v-1l0.8,0.4L351.8,407.6z M351.6,407.7l-0.7-0.4l0.7-0.6V407.7z M350.8,407.1v-0.8l0.7,0.3
                                    L350.8,407.1z M350.5,407.1l-0.7-0.4l0.7-0.5V407.1z M349.7,406.5v-0.7l0.7,0.3L349.7,406.5z M349.5,406.6l-0.6-0.3l0.6-0.4V406.6
                                    z M348.9,406v-0.6l0.5,0.2L348.9,406z M361.6,408.8h-1.4v-1.3h1.4V408.8z M359.8,413.5l-0.5-2h0.5V413.5z M360,411.5h0.4l-0.4,1.8
                                    V411.5z M360.6,411.9l0.8,2.5h-1.3L360.6,411.9z M361.2,414.6l-1.2,2.6v-2.6H361.2z M359.8,417.2l-1.3-2.5h1.3V417.2z
                                     M358.4,414.4l0.7-2.5l0.6,2.5H358.4z M362.3,417.6h-2.2l1.4-2.9L362.3,417.6z M357.4,417.6l0.9-2.9l1.4,2.9H357.4z M358.3,407.5
                                    h1.4v1.4h-1.4V407.5z M357.7,411l-1.6-0.8l1.6-1.1V411z M348.3,405.9c0.2-0.1,0.3-0.3,0.3-0.5l0,0v0.7L348.3,405.9z" />
  </g>
  <g>
    <rect x="395" y="442.6" fill="#FFFFFF" fill-opacity="0" width="16.5" height="16.5" />
    <path fill="#FF6666"
      d="M396,445.6v3.8c-0.1,0-0.2,0.2-0.2,0.3s0.1,0.3,0.2,0.3v0.2c-0.2,0.1-0.3,0.3-0.2,0.5
                                    c0,0.1,0.1,0.3,0.3,0.3c0,0,0,0,0.1,0c0.1,0,0.3,0,0.4-0.2c0,0,0-0.1,0-0.2c0,0-0.1,0-0.2,0c-0.1,0.1-0.2,0.2-0.2,0.1
                                    c0,0-0.1,0-0.1-0.1c0-0.1,0-0.2,0.2-0.3l0,0V450c0.1,0,0.2-0.2,0.2-0.3c0-0.1-0.1-0.3-0.2-0.3v-3.8c0,0,0,0,0.1,0l9.6,5.2v0.3h1.4
                                    l-1.9,6.3h2.8l0,0l0,0h2.8l-1.9-6.3h1.4v-4.6h0.3c-2.5-1.3-5.1,0-5.1,0h0.4v1.8l-9.1-3.7c-0.1-0.3-0.4-0.5-0.7-0.5
                                    c-0.4,0-0.7,0.4-0.7,0.7C395.4,445.2,395.7,445.5,396,445.6z M404.1,449.5l-1.3-0.7l1.3-0.8V449.5z M404.3,447.9l1.4,0.6l-1.4,1
                                    V447.9z M402.6,448.5v-1.3l1.3,0.5L402.6,448.5z M402.4,448.5l-1-0.5l1-0.7V448.5z M401.3,447.8v-1.1l1,0.4L401.3,447.8z
                                     M401.1,447.8l-0.8-0.4l0.8-0.7V447.8z M400.2,447.2v-1l0.8,0.4L400.2,447.2z M399.9,447.2l-0.7-0.4l0.7-0.6V447.2z M399.1,446.6
                                    v-0.8l0.7,0.3L399.1,446.6z M398.8,446.6l-0.7-0.4l0.7-0.5V446.6z M398,446v-0.7l0.7,0.3L398,446z M397.8,446.1l-0.6-0.3l0.6-0.4
                                    V446.1z M397.2,445.6V445l0.5,0.2L397.2,445.6z M409.9,448.4h-1.4V447h1.4V448.4z M408.1,453.1l-0.5-2h0.5V453.1z M408.3,451h0.4
                                    l-0.4,1.8V451z M408.9,451.4l0.8,2.5h-1.3L408.9,451.4z M409.6,454.2l-1.2,2.6v-2.6H409.6z M408.1,456.7l-1.3-2.5h1.3V456.7z
                                     M406.7,453.9l0.7-2.5l0.6,2.5H406.7z M410.7,457.1h-2.2l1.4-2.9L410.7,457.1z M405.7,457.1l0.9-2.9l1.4,2.9H405.7z M406.6,447
                                    h1.4v1.4h-1.4V447z M406,450.5l-1.6-0.8l1.6-1.1V450.5z M396.6,445.4c0.2-0.1,0.3-0.3,0.3-0.5l0,0v0.7L396.6,445.4z" />
  </g>
  <g>
    <rect x="482.2" y="498.4" fill="#FFFFFF" fill-opacity="0" width="16.5" height="16.5" />
    <path fill="#FF6666"
      d="M483.2,501.4v3.8c-0.1,0-0.2,0.2-0.2,0.3c0,0.1,0.1,0.3,0.2,0.3v0.2c-0.2,0.1-0.3,0.3-0.2,0.5
                                    c0,0.1,0.1,0.3,0.3,0.3c0,0,0,0,0.1,0c0.1,0,0.3,0,0.4-0.2c0,0,0-0.1,0-0.2c0,0-0.1,0-0.2,0c-0.1,0.1-0.2,0.2-0.2,0.1
                                    c0,0-0.1,0-0.1-0.1c0-0.1,0-0.2,0.2-0.3l0,0v-0.4c0.1,0,0.2-0.2,0.2-0.3s-0.1-0.3-0.2-0.3v-3.8c0,0,0,0,0.1,0l9.6,5.2v0.3h1.4
                                    l-1.9,6.3h2.8l0,0l0,0h2.8l-1.9-6.3h1.4v-4.6h0.3c-2.5-1.3-5.1,0-5.1,0h0.4v1.8l-9.1-3.7c-0.1-0.3-0.4-0.5-0.7-0.5
                                    c-0.4,0-0.7,0.4-0.7,0.7C482.6,501,482.8,501.3,483.2,501.4z M491.2,505.3l-1.3-0.7l1.3-0.8V505.3z M491.5,503.7l1.4,0.6l-1.4,1
                                    V503.7z M489.8,504.3V503l1.3,0.5L489.8,504.3z M489.5,504.3l-1-0.5l1-0.7V504.3z M488.5,503.6v-1.1l1,0.4L488.5,503.6z
                                     M488.3,503.6l-0.8-0.4l0.8-0.7V503.6z M487.3,503v-1l0.8,0.4L487.3,503z M487.1,503l-0.7-0.4l0.7-0.6V503z M486.3,502.4v-0.8
                                    l0.7,0.3L486.3,502.4z M486,502.5l-0.7-0.4l0.7-0.5V502.5z M485.2,501.9v-0.7l0.7,0.3L485.2,501.9z M485,501.9l-0.6-0.3l0.6-0.4
                                    V501.9z M484.3,501.4v-0.6l0.5,0.2L484.3,501.4z M497.1,504.2h-1.4v-1.4h1.4V504.2z M495.3,508.9l-0.5-2h0.5V508.9z M495.5,506.8
                                    h0.4l-0.4,1.8V506.8z M496,507.2l0.8,2.5h-1.3L496,507.2z M496.7,510l-1.2,2.6V510H496.7z M495.3,512.5L494,510h1.3V512.5z
                                     M493.9,509.7l0.7-2.5l0.6,2.5H493.9z M497.8,513h-2.2l1.4-2.9L497.8,513z M492.9,513l0.9-2.9l1.4,2.9H492.9z M493.8,502.8h1.4
                                    v1.4h-1.4V502.8z M493.1,506.3l-1.6-0.8l1.6-1.1V506.3z M483.8,501.2c0.2-0.1,0.3-0.3,0.3-0.5l0,0v0.7L483.8,501.2z" />
  </g>


  <g>
    <a cursor="pointer" pointer-events="all" data-toggle="modal" data-target="#santa-fe_port">
      <rect x="277.2" y="370.7" fill="pink" fill-opacity="100%" width="16.5" height="16.5" />
      <path fill="#FF6666"
        d="M293.1,373c0-0.4-0.4-0.7-0.7-0.7c-0.4,0-0.6,0.2-0.7,0.5l-9.1,3.7v-1.8h0.4c0,0-2.5-1.3-5.1,0h0.3v4.6
                                    h1.4l-1.9,6.3h2.8l0,0l0,0h2.8l-1.9-6.3h1.4v-0.3l9.6-5.2c0,0,0,0,0.1,0v3.8c-0.1,0-0.2,0.2-0.2,0.3s0.1,0.3,0.2,0.3v0.4l0,0
                                    c0.1,0.1,0.2,0.2,0.2,0.3c0,0,0,0.1-0.1,0.1c-0.1,0-0.2,0-0.2-0.1c0,0-0.1,0-0.2,0c0,0,0,0.1,0,0.2c0.1,0.2,0.3,0.2,0.4,0.2
                                    c0,0,0,0,0.1,0c0.1,0,0.3-0.1,0.3-0.3c0-0.2,0-0.4-0.2-0.5v-0.2c0.1,0,0.2-0.2,0.2-0.3c0-0.1-0.1-0.3-0.2-0.3v-3.8
                                    C292.9,373.7,293.1,373.4,293.1,373z M284.5,376.1l1.3,0.8l-1.3,0.7V376.1z M284.2,377.6l-1.4-1l1.4-0.6V377.6z M284.6,375.9
                                    l1.3-0.5v1.3L284.6,375.9z M286.1,375.5l1,0.7l-1,0.5V375.5z M286.2,375.3l1-0.4v1.1L286.2,375.3z M287.4,374.9l0.8,0.7l-0.8,0.4
                                    V374.9z M287.6,374.7l0.8-0.4v1L287.6,374.7z M288.6,374.5l0.7,0.6l-0.7,0.4V374.5z M288.7,374.3l0.7-0.3v0.8L288.7,374.3z
                                     M289.7,374l0.7,0.5l-0.7,0.4V374z M289.8,373.8l0.7-0.3v0.7L289.8,373.8z M290.7,373.6l0.6,0.4l-0.6,0.3V373.6z M290.8,373.4
                                    l0.5-0.2v0.6L290.8,373.4z M278.6,375.2h1.4v1.4h-1.4V375.2z M280.4,379.2h0.5l-0.5,2V379.2z M280.2,381.1l-0.4-1.8h0.4V381.1z
                                     M280.2,382.1h-1.3l0.8-2.5L280.2,382.1z M280.2,382.4v2.6l-1.2-2.6H280.2z M280.4,382.4h1.3l-1.3,2.5V382.4z M280.5,382.1
                                    l0.6-2.5l0.7,2.5H280.5z M278.8,382.5l1.4,2.9h-2.2L278.8,382.5z M280.5,385.3l1.4-2.9l0.9,2.9H280.5z M281.9,376.6h-1.4v-1.4h1.4
                                    V376.6z M282.5,376.8l1.6,1.1l-1.6,0.8V376.8z M291.6,373.8v-0.7l0,0c0,0.2,0.1,0.4,0.3,0.5L291.6,373.8z" />

    </a>
  </g>
</svg>