<?xml version="1.0" encoding="utf-8"?>
<!-- Generator: Adobe Illustrator 18.0.0, SVG Export Plug-In . SVG Version: 6.00 Build 0)  -->
<!DOCTYPE svg PUBLIC "-//W3C//DTD SVG 1.1 Tiny//EN" "http://www.w3.org/Graphics/SVG/1.1/DTD/svg11-tiny.dtd">
<svg version="1.1" baseProfile="tiny" id="Layer_1" xmlns="http://www.w3.org/2000/svg" xmlns:xlink="http://www.w3.org/1999/xlink"
	 x="0px" y="0px" viewBox="0 0 36.2 32.3" xml:space="preserve">
<path fill="#FF6666" d="M34.6,20.9l-3-0.5l-2.1-4.7c-0.1-0.9-0.8-1.6-1.7-1.6h-7.3v-3.3c0-1-0.8-1.7-1.7-1.7h-17C0.8,9,0,9.8,0,10.7
	v9.6v2.8v4.5c0,1,0.8,1.7,1.7,1.7H4v-0.4c0.3,1.8,1.8,3.2,3.7,3.2c1.7,0,3.2-1.2,3.6-2.8h12.6c0.4,1.6,1.9,2.8,3.6,2.8
	c1.9,0,3.4-1.4,3.7-3.2v0.4h3.4c1,0,1.7-0.8,1.7-1.7v-4.5C36.2,22.3,35.6,20.9,34.6,20.9z M7.7,31c-1.4,0-2.5-1.1-2.5-2.5
	c0-1.4,1.1-2.5,2.5-2.5c1.4,0,2.5,1.1,2.5,2.5C10.2,29.9,9,31,7.7,31z M27.4,31c-1.4,0-2.5-1.1-2.5-2.5c0-1.4,1.1-2.5,2.5-2.5
	c1.4,0,2.5,1.1,2.5,2.5C30,29.9,28.8,31,27.4,31z"/>
<circle fill="#FF6666" cx="33.8" cy="2.4" r="2.4"/>
<circle fill="#D6D6D6" cx="33.8" cy="7.9" r="2.4"/>
<circle fill="#D6D6D6" cx="33.8" cy="13.3" r="2.4"/>
</svg>
