<?xml version="1.0" encoding="utf-8"?>
<!-- Generator: Adobe Illustrator 23.0.1, SVG Export Plug-In . SVG Version: 6.00 Build 0)  -->
<svg version="1.1" id="Layer_1" xmlns="http://www.w3.org/2000/svg" xmlns:xlink="http://www.w3.org/1999/xlink" x="0px" y="0px"
	 viewBox="0 0 124.9 125" style="enable-background:new 0 0 124.9 125;" xml:space="preserve">
<style type="text/css">
	.st0{fill:#51403E;}
	.st1{fill:#F53B31;}
	.st2{fill:#B16D3E;}
	.st3{fill:#C3824C;}
	.st4{fill:#C2C4BA;}
	.st5{fill:#93563A;}
	.st6{fill:#D4D6C9;}
	.st7{fill:#FFFFFF;}
	.st8{fill:#FE7F61;}
	.st9{fill:#90B9CA;}
	.st10{fill:#F8CC65;}
	.st11{fill:#A2CC7D;}
	.st12{fill:#A2C9EA;}
	.st13{fill:#04221C;}
	.st14{fill:#074437;}
	.st15{fill:#FF6666;}
	.st16{fill:#FFCC33;}
	.st17{fill:#F6E25A;}
	.st18{fill:#00A784;}
	.st19{fill:#095A49;}
	.st20{fill:#B7A425;}
	.st21{fill:#CC9966;}
</style>
<g>
	<g>
		<g>
			<path class="st0" d="M57.6,70.6l2.8-1.4c1.9-0.9,2.6-3.2,1.7-5.1l-17.2-35c-2.2-4.4-6-7.8-10.6-9.5l0,0l0,0
				c-1.5,4.7-1.1,9.8,1,14.2l17.2,35C53.5,70.8,55.7,71.5,57.6,70.6z"/>
			<path class="st1" d="M45.4,30.2l-0.5-0.9c-2.2-4.4-6-7.8-10.6-9.5l0,0c-1.5,4.7-1.1,9.8,1,14.2l0.5,0.9L45.4,30.2z"/>
			<path class="st1" d="M51.1,65.9l1.5,3c0.9,1.9,3.2,2.6,5.1,1.7l2.8-1.4c1.9-0.9,2.6-3.2,1.7-5.1l-1.5-3L51.1,65.9z"/>
			<path class="st2" d="M57.3,70.1c-1.6,0.8-3.5,0.1-4.3-1.5l-17.2-35c-2-4.1-2.4-8.8-1.2-13.2c4.3,1.7,7.7,4.9,9.7,9l17.2,35
				c0.8,1.6,0.1,3.5-1.5,4.3L57.3,70.1z"/>
			<path class="st3" d="M39,22.9c-1.3-1-2.8-1.8-4.3-2.4c-0.5,1.6-0.7,3.3-0.7,4.9L39,22.9z"/>
			<path class="st3" d="M57.3,70.1l2.8-1.4c1.6-0.8,2.2-2.7,1.5-4.3l-8.5,4.2C53.8,70.2,55.8,70.9,57.3,70.1z"/>
			<path class="st4" d="M49,60.4l1.6,3.4c0.3,0.5,0.8,0.8,1.5,0.8c2.8-0.1,5.1-1.2,6.8-3.4c0.4-0.5,0.5-1.1,0.2-1.6l-1.7-3.4
				L49,60.4z"/>
			<path class="st5" d="M53.7,68.3c0.8,1.2,2.3,1.7,3.5,1.1l2.4-1.2c1.2-0.6,1.8-2.1,1.3-3.4L53.7,68.3z"/>
			<path class="st3" d="M40,27.1l0.6-0.3c0.2-0.1,0.3-0.3,0.2-0.5l-0.5-1.1C40.2,25,40,24.9,39.8,25l-0.6,0.3
				c-0.2,0.1-0.3,0.3-0.2,0.5l0.5,1.1C39.5,27.1,39.8,27.2,40,27.1z"/>
			<path class="st3" d="M36.1,29l0.6-0.3c0.2-0.1,0.3-0.3,0.2-0.5l-0.5-1.1c-0.1-0.2-0.3-0.3-0.5-0.2l-0.6,0.3
				c-0.2,0.1-0.3,0.3-0.2,0.5l0.5,1.1C35.6,29,35.9,29.1,36.1,29z"/>
			<path class="st3" d="M59.4,64.4l0.6-0.3c0.2-0.1,0.3-0.3,0.2-0.5l-0.5-1.1c-0.1-0.2-0.3-0.3-0.5-0.2l-0.6,0.3
				c-0.2,0.1-0.3,0.3-0.2,0.5l0.5,1.1C59,64.5,59.3,64.5,59.4,64.4z"/>
			<path class="st3" d="M53.8,67.2l0.6-0.3c0.2-0.1,0.3-0.3,0.2-0.5l-0.6-1c-0.1-0.2-0.3-0.3-0.5-0.2l-0.6,0.3
				c-0.2,0.1-0.3,0.3-0.2,0.5l0.5,1.1C53.4,67.2,53.6,67.3,53.8,67.2z"/>
		</g>
		<path class="st6" d="M52,61.4c1.7-0.3,3.2-1,4.6-2.3l-0.4-0.9l-4.6,2.3L52,61.4z"/>
		<rect x="48" y="56.1" transform="matrix(0.8973 -0.4415 0.4415 0.8973 -19.8449 29.172)" class="st7" width="9.5" height="2.3"/>
		<g>
			
				<rect x="49" y="59.2" transform="matrix(0.8973 -0.4415 0.4415 0.8973 -21.1506 28.0262)" class="st0" width="1.3" height="0.5"/>
			
				<rect x="48.7" y="58.6" transform="matrix(0.8973 -0.4415 0.4415 0.8973 -20.9101 27.83)" class="st0" width="1.3" height="0.5"/>
			<rect x="48.4" y="58" transform="matrix(0.8973 -0.4415 0.4415 0.8973 -20.6845 27.653)" class="st0" width="1.3" height="0.5"/>
			
				<rect x="50.3" y="58.6" transform="matrix(0.8973 -0.4415 0.4415 0.8973 -20.74 28.5509)" class="st0" width="1.3" height="0.5"/>
			<rect x="50" y="58" transform="matrix(0.8973 -0.4415 0.4415 0.8973 -20.4996 28.3547)" class="st0" width="1.3" height="0.5"/>
			
				<rect x="49.8" y="57.4" transform="matrix(0.8973 -0.4415 0.4415 0.8973 -20.2739 28.1777)" class="st0" width="1.3" height="0.5"/>
			
				<rect x="51.8" y="57.9" transform="matrix(0.8973 -0.4415 0.4415 0.8973 -20.3007 29.1106)" class="st0" width="1.3" height="0.5"/>
			
				<rect x="51.4" y="57.3" transform="matrix(0.8973 -0.4415 0.4415 0.8973 -20.0603 28.9144)" class="st0" width="1.3" height="0.5"/>
			
				<rect x="51.1" y="56.6" transform="matrix(0.8973 -0.4415 0.4415 0.8973 -19.7996 28.7087)" class="st0" width="1.3" height="0.5"/>
			<rect x="53" y="57.2" transform="matrix(0.8973 -0.4415 0.4415 0.8973 -19.855 29.6065)" class="st0" width="1.3" height="0.5"/>
			
				<rect x="52.7" y="56.6" transform="matrix(0.8973 -0.4415 0.4415 0.8973 -19.6147 29.4104)" class="st0" width="1.3" height="0.5"/>
			<rect x="52.5" y="56" transform="matrix(0.8973 -0.4415 0.4415 0.8973 -19.389 29.2334)" class="st0" width="1.3" height="0.5"/>
			
				<rect x="54.5" y="56.6" transform="matrix(0.8973 -0.4415 0.4415 0.8973 -19.4158 30.1663)" class="st0" width="1.3" height="0.5"/>
			
				<rect x="54.2" y="55.9" transform="matrix(0.8973 -0.4415 0.4415 0.8973 -19.1753 29.9701)" class="st0" width="1.3" height="0.5"/>
			
				<rect x="53.9" y="55.4" transform="matrix(0.8973 -0.4415 0.4415 0.8973 -18.9497 29.7932)" class="st0" width="1.3" height="0.5"/>
			
				<rect x="55.8" y="55.9" transform="matrix(0.8973 -0.4415 0.4415 0.8973 -19.0052 30.691)" class="st0" width="1.3" height="0.5"/>
			
				<rect x="55.5" y="55.3" transform="matrix(0.8973 -0.4415 0.4415 0.8973 -18.7648 30.4948)" class="st0" width="1.3" height="0.5"/>
			
				<rect x="55.2" y="54.7" transform="matrix(0.8973 -0.4415 0.4415 0.8973 -18.5041 30.2891)" class="st0" width="1.3" height="0.5"/>
		</g>
		
			<rect x="39.8" y="38.7" transform="matrix(0.8973 -0.4415 0.4415 0.8973 -13.1154 23.6507)" class="st8" width="8.9" height="2.7"/>
		
			<rect x="41.2" y="41.5" transform="matrix(0.8973 -0.4415 0.4415 0.8973 -14.2206 24.5317)" class="st0" width="8.9" height="2.7"/>
		
			<rect x="42.5" y="44.2" transform="matrix(0.8973 -0.4415 0.4415 0.8973 -15.2619 25.4191)" class="st9" width="8.9" height="2.7"/>
		
			<rect x="45.6" y="48" transform="matrix(0.8973 -0.4415 0.4415 0.8973 -18.3326 26.1231)" class="st10" width="2.7" height="8.9"/>
		
			<rect x="48.3" y="46.6" transform="matrix(0.8973 -0.4415 0.4415 0.8973 -17.452 27.1691)" class="st6" width="2.7" height="8.9"/>
		
			<rect x="51.1" y="45.3" transform="matrix(0.8973 -0.4415 0.4415 0.8973 -16.5777 28.2789)" class="st8" width="2.7" height="8.9"/>
		
			<rect x="37.4" y="31.4" transform="matrix(0.8973 -0.4415 0.4415 0.8973 -11.8603 20.7937)" class="st9" width="2.7" height="8.9"/>
		
			<rect x="40.2" y="30.1" transform="matrix(0.8973 -0.4415 0.4415 0.8973 -10.9861 21.9035)" class="st11" width="2.7" height="8.9"/>
		<rect x="43" y="28.7" transform="matrix(0.8973 -0.4415 0.4415 0.8973 -10.0767 22.9845)" class="st0" width="2.7" height="8.9"/>
	</g>
</g>
<g>
	<g>
		<g>
			<path class="st12" d="M71.5,70.6c0.1,0.2,0,0.5-0.2,0.7c-5.6,5.6-12.7,9.4-20.5,10.9c-0.4,0.1-0.7-0.2-0.8-0.6s0.2-0.7,0.6-0.8
				c7.5-1.5,14.4-5.1,19.8-10.5c0.3-0.3,0.7-0.3,1,0C71.4,70.4,71.4,70.5,71.5,70.6z"/>
		</g>
		<g>
			<path class="st12" d="M73.8,72.9c0.1,0.2,0,0.5-0.2,0.7c-4.1,4.1-6.5,5.8-11.7,8.3c-0.3,0.2-0.8,0-0.9-0.3
				c-0.2-0.3,0-0.8,0.3-0.9c5.1-2.4,7.4-4.1,11.3-8.1c0.3-0.3,0.7-0.3,1,0C73.7,72.7,73.7,72.8,73.8,72.9z"/>
		</g>
		<g>
			<path class="st12" d="M56.6,83.4L56.6,83.4c0.1,0.4-0.1,0.8-0.5,0.9c-1.9,0.6-2.8,0.8-4.7,1.2c-0.4,0.1-0.7-0.2-0.8-0.6
				s0.2-0.7,0.6-0.8c1.9-0.4,2.8-0.6,4.6-1.2C56.1,82.8,56.5,83,56.6,83.4z"/>
		</g>
		<g>
			<path class="st12" d="M76.5,75.6c0.1,0.2,0,0.5-0.2,0.7c-2.8,2.9-4.5,4.2-7.9,6.3c-0.3,0.2-0.8,0.1-1-0.2c-0.2-0.3-0.1-0.8,0.2-1
				c3.3-2.1,4.8-3.3,7.6-6.2c0.3-0.3,0.7-0.3,1,0C76.4,75.4,76.4,75.5,76.5,75.6z"/>
		</g>
		<g>
			<path class="st12" d="M54.8,87.8C54.9,87.8,54.9,87.9,54.8,87.8c0.1,0.4-0.1,0.8-0.5,0.9c-0.9,0.2-1.3,0.3-2.2,0.5
				c-0.4,0.1-0.7-0.2-0.8-0.6s0.2-0.7,0.6-0.8c0.9-0.2,1.3-0.3,2.1-0.5C54.4,87.3,54.7,87.5,54.8,87.8z"/>
		</g>
		<g>
			<path class="st12" d="M65.2,83.9c0.1,0.3,0,0.7-0.3,0.9c-2.1,1.1-3.2,1.6-5.3,2.4c-0.4,0.1-0.8-0.1-0.9-0.4
				c-0.2-0.4,0.1-0.8,0.4-0.9c2.1-0.8,3.2-1.2,5.2-2.3C64.5,83.4,64.9,83.5,65.2,83.9C65.1,83.9,65.2,83.9,65.2,83.9z"/>
		</g>
		<g>
			<path class="st12" d="M80.2,79.3c0.1,0.2,0,0.5-0.2,0.7c-2,2-3.1,3-5.4,4.8c-0.3,0.2-0.7,0.2-1-0.1c-0.2-0.3-0.2-0.7,0.1-1
				C76,82,77,81.1,79,79.1c0.3-0.3,0.7-0.3,1,0C80.1,79.2,80.2,79.2,80.2,79.3z"/>
		</g>
		<g>
			<path class="st12" d="M56.1,93L56.1,93c0.1,0.4-0.1,0.8-0.5,0.9c-1,0.2-1.5,0.3-2.4,0.5c-0.4,0.1-0.8-0.2-0.8-0.6
				c-0.1-0.4,0.2-0.7,0.6-0.8c1-0.2,1.4-0.3,2.4-0.5C55.6,92.4,56,92.6,56.1,93z"/>
		</g>
		<g>
			<path class="st12" d="M64,90.3c0.1,0.3,0,0.7-0.4,0.9c-1.2,0.5-1.8,0.8-3.1,1.2c-0.4,0.1-0.8-0.1-0.9-0.4l0,0
				c-0.1-0.4,0.1-0.8,0.4-0.9c1.2-0.4,1.8-0.7,3-1.2C63.4,89.8,63.8,89.9,64,90.3L64,90.3z"/>
		</g>
		<g>
			<path class="st12" d="M70.1,87.2c0.1,0.3,0,0.7-0.3,0.8c-0.9,0.5-1.3,0.8-2.2,1.2c-0.3,0.2-0.8,0.1-0.9-0.3
				c-0.2-0.3-0.1-0.8,0.3-0.9c0.8-0.5,1.3-0.7,2.1-1.2c0.3-0.2,0.8-0.1,1,0.2C70.1,87.1,70.1,87.2,70.1,87.2z"/>
		</g>
		<g>
			<path class="st12" d="M85.6,84.6c0.1,0.2,0,0.5-0.2,0.7c-1.8,1.8-2.8,2.7-4.8,4.3c-0.3,0.2-0.7,0.2-1-0.1c-0.2-0.3-0.2-0.7,0.1-1
				c2-1.6,2.9-2.4,4.7-4.2c0.3-0.3,0.7-0.3,1,0C85.5,84.5,85.5,84.5,85.6,84.6z"/>
		</g>
		<g>
			<path class="st12" d="M57.9,100.3L57.9,100.3c0.1,0.4-0.1,0.8-0.5,0.9c-1.1,0.3-1.7,0.4-2.8,0.6c-0.4,0.1-0.7-0.2-0.8-0.6
				s0.2-0.7,0.6-0.8c1.1-0.2,1.6-0.3,2.7-0.6C57.4,99.7,57.8,99.9,57.9,100.3z"/>
		</g>
		<g>
			<path class="st12" d="M71.9,94.9c0.1,0.3,0,0.7-0.3,0.8c-3.3,1.8-5,2.5-8.5,3.8c-0.4,0.1-0.8-0.1-0.9-0.4l0,0
				c-0.1-0.4,0.1-0.8,0.4-0.9c3.5-1.2,5.1-1.9,8.3-3.7C71.2,94.3,71.7,94.4,71.9,94.9C71.9,94.8,71.9,94.8,71.9,94.9z"/>
		</g>
		<g>
			<path class="st12" d="M91.4,90.5c0.1,0.2,0,0.5-0.2,0.7c-1.2,1.2-1.8,1.7-3,2.8c-0.3,0.3-0.7,0.2-1-0.1c-0.3-0.3-0.2-0.7,0.1-1
				c1.2-1.1,1.8-1.6,2.9-2.8c0.3-0.3,0.7-0.3,1,0C91.3,90.3,91.4,90.4,91.4,90.5z"/>
		</g>
		<g>
			<path class="st12" d="M59.8,108.3C59.8,108.3,59.9,108.3,59.8,108.3c0.1,0.4-0.1,0.8-0.5,0.9c-1.3,0.3-1.9,0.5-3.2,0.7
				c-0.4,0.1-0.7-0.2-0.8-0.6s0.2-0.7,0.6-0.8c1.3-0.2,1.9-0.4,3.1-0.7C59.4,107.7,59.7,107.9,59.8,108.3z"/>
		</g>
		<g>
			<path class="st12" d="M76.8,101.6c0.1,0.3,0,0.7-0.3,0.8c-1.5,0.8-2.3,1.2-3.8,2c-0.3,0.2-0.8,0-0.9-0.3c-0.2-0.3,0-0.8,0.3-0.9
				c1.5-0.7,2.3-1.1,3.7-1.9C76.1,101.1,76.6,101.2,76.8,101.6C76.7,101.5,76.8,101.6,76.8,101.6z"/>
		</g>
	</g>
</g>
<g>
	<path class="st13" d="M60.5,68.1l2.9-1.3c2-0.8,2.8-3,1.9-4.9L48.5,27.8c-2.1-4.3-6-7.7-10.7-9.4l0,0l0,0
		c-1.7,4.5-1.4,9.4,0.7,13.8l16.8,34.2C56.2,68.1,58.5,68.9,60.5,68.1z"/>
	<path class="st14" d="M57.9,70.7l2.9-1.3c2-0.8,2.8-3,1.9-4.9L45.9,30.4c-2.1-4.3-6-7.7-10.7-9.4l0,0l0,0
		c-1.7,4.5-1.4,9.4,0.7,13.8l16.8,34.2C53.6,70.7,55.9,71.5,57.9,70.7z"/>
	<path class="st15" d="M45.5,29.7l-0.5-0.9c-2.1-4.3-6-7.7-10.7-9.4l0,0c-1.7,4.5-1.4,9.4,0.7,13.8l0.5,0.9L45.5,29.7z"/>
	<path class="st15" d="M51.3,66l1.4,2.9c0.9,1.8,3.2,2.6,5.2,1.8l2.9-1.3c2-0.8,2.8-3,1.9-4.9l-1.4-2.9L51.3,66z"/>
	<path class="st16" d="M57.6,70.2c-1.7,0.7-3.6,0-4.4-1.6L35.9,33.4c-2-4.1-2.4-8.8-1-13.1c4.4,1.8,7.9,5.1,9.9,9.2l17.3,35.1
		c0.8,1.6,0.1,3.5-1.6,4.2L57.6,70.2z"/>
	<path class="st15" d="M39.9,24.1c-1.5-1.3-3.1-2.3-4.8-3.2c-0.4,1.8-0.6,3.6-0.5,5.5L39.9,24.1z"/>
	<path class="st17" d="M57.6,70.2l2.9-1.3c1.7-0.7,2.4-2.6,1.6-4.1l-8.9,3.8C54,70.2,56,70.9,57.6,70.2z"/>
	<path class="st15" d="M53.9,68.3c0.8,1.2,2.3,1.7,3.6,1.1l2.5-1.1c1.3-0.6,1.9-2,1.4-3.3L53.9,68.3z"/>
	<path class="st15" d="M40.2,26.6l0.4-0.2c0.2-0.1,0.3-0.4,0.2-0.6L40.4,25c-0.1-0.2-0.4-0.3-0.6-0.2l-0.4,0.2
		c-0.2,0.1-0.3,0.4-0.2,0.6l0.4,0.9C39.6,26.7,39.9,26.8,40.2,26.6z"/>
	<path class="st15" d="M36.1,28.4l0.4-0.2c0.2-0.1,0.3-0.4,0.2-0.6l-0.4-0.9c-0.1-0.2-0.4-0.3-0.6-0.2l-0.4,0.2
		c-0.2,0.1-0.3,0.4-0.2,0.6l0.4,0.9C35.6,28.4,35.8,28.5,36.1,28.4z"/>
	<path class="st17" d="M60.1,64.9l0.4-0.2c0.2-0.1,0.3-0.4,0.2-0.6l-0.4-0.9C60.2,63,60,62.9,59.7,63l-0.4,0.2
		c-0.2,0.1-0.3,0.4-0.2,0.6l0.4,0.9C59.6,64.9,59.9,65,60.1,64.9z"/>
	<path class="st17" d="M54.2,67.5l0.4-0.2c0.2-0.1,0.3-0.4,0.2-0.6l-0.4-0.9c-0.1-0.2-0.4-0.3-0.6-0.2l-0.4,0.2
		c-0.2,0.1-0.3,0.4-0.2,0.6l0.4,0.9C53.7,67.5,54,67.6,54.2,67.5z"/>
	<g>
		<path class="st18" d="M49.5,60.9l1.6,3.3c0.2,0.5,0.8,0.8,1.5,0.8c2.9,0,5.3-1.1,7.1-3.1c0.4-0.5,0.5-1.1,0.3-1.6l-1.6-3.3
			L49.5,60.9z"/>
		<path class="st19" d="M52.8,62.8c1.7-0.2,3.3-0.9,4.8-2.1l-0.4-0.9l-4.8,2.1L52.8,62.8z"/>
		<polygon class="st18" points="48.8,59.6 57.7,55.8 58.7,57.8 49.8,61.7 		"/>
		<g>
			<polygon class="st14" points="49.8,60.9 51,60.4 51.2,60.8 50,61.3 			"/>
			<polygon class="st14" points="49.5,60.3 50.7,59.8 50.9,60.2 49.7,60.7 			"/>
			<polygon class="st14" points="49.2,59.7 50.5,59.2 50.7,59.6 49.4,60.1 			"/>
			<polygon class="st14" points="51.2,60.3 52.4,59.8 52.6,60.2 51.4,60.7 			"/>
			<polygon class="st14" points="50.9,59.7 52.2,59.2 52.4,59.6 51.1,60.1 			"/>
			<polygon class="st14" points="50.6,59.1 51.9,58.6 52.1,59 50.8,59.5 			"/>
			<polygon class="st14" points="52.6,59.7 53.9,59.2 54.1,59.5 52.8,60.1 			"/>
			<polygon class="st14" points="52.3,59.1 53.6,58.6 53.8,59 52.5,59.5 			"/>
			<polygon class="st14" points="52.1,58.5 53.3,58 53.5,58.4 52.2,58.9 			"/>
			<polygon class="st14" points="54,59.1 55.3,58.5 55.5,58.9 54.2,59.5 			"/>
			<polygon class="st14" points="53.8,58.5 55,57.9 55.2,58.3 53.9,58.9 			"/>
			<polygon class="st14" points="53.5,57.9 54.7,57.4 54.9,57.8 53.7,58.3 			"/>
			<polygon class="st14" points="55.5,58.5 56.7,57.9 56.9,58.3 55.7,58.9 			"/>
			<polygon class="st14" points="55.2,57.9 56.4,57.3 56.6,57.7 55.4,58.3 			"/>
			<polygon class="st14" points="54.9,57.3 56.1,56.8 56.3,57.2 55.1,57.7 			"/>
			<polygon class="st14" points="56.9,57.9 58.1,57.3 58.3,57.7 57.1,58.2 			"/>
			<polygon class="st14" points="56.6,57.3 57.8,56.7 58,57.1 56.8,57.7 			"/>
			<polygon class="st14" points="56.3,56.7 57.6,56.2 57.7,56.5 56.5,57.1 			"/>
		</g>
	</g>
	<g>
		<polygon class="st20" points="53.1,49 56.2,55.3 49.4,58.3 46.3,51.9 		"/>
		<polygon class="st16" points="52.9,49.3 55.8,55.2 49.6,57.9 46.7,52.1 		"/>
		<polygon class="st21" points="52.9,49.5 55.6,55.1 49.7,57.7 46.9,52.1 		"/>
	</g>
	<g>
		<polygon class="st20" points="49.4,41.7 52.5,48 45.8,51 42.6,44.6 		"/>
		<polygon class="st16" points="49.2,42 52.1,47.9 45.9,50.6 43,44.7 		"/>
		<polygon class="st21" points="49.2,42.2 51.9,47.8 46,50.4 43.2,44.8 		"/>
	</g>
	<g>
		<polygon class="st20" points="45.7,34.2 48.8,40.6 42.1,43.5 38.9,37.2 		"/>
		<polygon class="st16" points="45.6,34.6 48.5,40.4 42.2,43.1 39.3,37.3 		"/>
		<polygon class="st21" points="45.5,34.8 48.3,40.4 42.3,43 39.5,37.4 		"/>
	</g>
	<g>
		<polygon class="st20" points="42,26.7 45.1,33.1 38.4,36 35.2,29.7 		"/>
		<polygon class="st16" points="41.8,27.1 44.7,32.9 38.5,35.7 35.6,29.8 		"/>
		<polygon class="st21" points="41.8,27.3 44.5,32.9 38.6,35.5 35.8,29.9 		"/>
	</g>
</g>
</svg>
