<?xml version="1.0" encoding="utf-8"?>
<!-- Generator: Adobe Illustrator 18.0.0, SVG Export Plug-In . SVG Version: 6.00 Build 0)  -->
<!DOCTYPE svg PUBLIC "-//W3C//DTD SVG 1.1 Tiny//EN" "http://www.w3.org/Graphics/SVG/1.1/DTD/svg11-tiny.dtd">
<svg version="1.1" baseProfile="tiny" id="Layer_1" xmlns="http://www.w3.org/2000/svg" xmlns:xlink="http://www.w3.org/1999/xlink"
	 x="0px" y="0px" viewBox="0 0 66.9 20" xml:space="preserve">
<path fill="#00A784" d="M3.2,12.7V8.2H2.9V5.4h2.3l0.4-3.8l3-0.6l0.7,4.4h2.2L12.1,0l0.5,5.4h4.3l-1.4,2.8h-0.4v4.5c1,0,2.1,0,3.2,0
	v-0.5h4.4v0.5c0.4,0,0.8,0,1.3,0v-0.5h4.4v0.5c0.4,0,0.8,0,1.3,0v-0.5h4.4v0.5c0.4,0,0.8,0,1.3,0v-0.5h4.4v0.5c0.4,0,0.8,0,1.3,0
	v-0.5h4.4v0.5c0.4,0,0.9,0,1.3,0v-0.5h4.4v0.5c0.6,0,1.2,0,1.7,0c1.1,0,1.4-0.9,2.4-0.9c9.7,0,10.7,0,11.5,0c-2,5.4-4.4,8.4-4.4,8.4
	H2.9c0,0-2.9-3.7-2.9-7.3C1,12.7,2,12.7,3.2,12.7z"/>
</svg>
